<svg xmlns="http://www.w3.org/2000/svg" xmlns:xlink="http://www.w3.org/1999/xlink" viewBox="0 0 234.77 113.66"><defs><style>.cls-1{isolation:isolate;}.cls-16,.cls-17,.cls-2,.cls-24,.cls-29,.cls-31,.cls-36,.cls-37,.cls-43,.cls-48,.cls-50,.cls-55,.cls-56,.cls-62,.cls-67,.cls-69,.cls-7,.cls-74,.cls-75,.cls-9{mix-blend-mode:multiply;}.cls-2{fill:url(#radial-gradient);}.cls-10,.cls-11,.cls-13,.cls-14,.cls-15,.cls-19,.cls-20,.cls-25,.cls-26,.cls-27,.cls-28,.cls-29,.cls-3,.cls-30,.cls-31,.cls-32,.cls-33,.cls-34,.cls-35,.cls-38,.cls-39,.cls-4,.cls-44,.cls-45,.cls-46,.cls-47,.cls-48,.cls-49,.cls-5,.cls-50,.cls-51,.cls-52,.cls-53,.cls-54,.cls-57,.cls-58,.cls-6,.cls-63,.cls-64,.cls-65,.cls-66,.cls-67,.cls-68,.cls-69,.cls-7,.cls-70,.cls-71,.cls-72,.cls-73,.cls-76,.cls-77,.cls-8,.cls-9{fill-rule:evenodd;}.cls-3{fill:url(#linear-gradient);}.cls-11,.cls-14,.cls-15,.cls-18,.cls-21,.cls-22,.cls-23,.cls-26,.cls-27,.cls-33,.cls-34,.cls-35,.cls-4,.cls-40,.cls-41,.cls-42,.cls-45,.cls-46,.cls-5,.cls-52,.cls-53,.cls-54,.cls-59,.cls-60,.cls-61,.cls-64,.cls-65,.cls-71,.cls-72,.cls-73,.cls-78,.cls-79,.cls-80{mix-blend-mode:screen;}.cls-4{fill:url(#linear-gradient-2);}.cls-5{fill:url(#linear-gradient-3);}.cls-6{fill:url(#linear-gradient-4);}.cls-7{fill:url(#linear-gradient-5);}.cls-8{fill:url(#linear-gradient-6);}.cls-9{fill:url(#linear-gradient-7);}.cls-10{fill:url(#radial-gradient-2);}.cls-11{fill:url(#radial-gradient-3);}.cls-12{fill:#bd5b03;}.cls-13{fill:#4a1201;}.cls-14{fill:url(#linear-gradient-8);}.cls-15{fill:url(#linear-gradient-9);}.cls-16{fill:url(#linear-gradient-10);}.cls-17{fill:url(#linear-gradient-11);}.cls-18{opacity:0.5;}.cls-19{fill:url(#linear-gradient-12);}.cls-20{fill:url(#linear-gradient-13);}.cls-21{fill:url(#radial-gradient-4);}.cls-22{fill:url(#radial-gradient-5);}.cls-23{fill:url(#radial-gradient-6);}.cls-24{fill:url(#radial-gradient-7);}.cls-25{fill:url(#linear-gradient-14);}.cls-26{fill:url(#linear-gradient-15);}.cls-27{fill:url(#linear-gradient-16);}.cls-28{fill:url(#linear-gradient-17);}.cls-29{fill:url(#linear-gradient-18);}.cls-30{fill:url(#linear-gradient-19);}.cls-31{fill:url(#linear-gradient-20);}.cls-32{fill:url(#radial-gradient-8);}.cls-33{fill:url(#radial-gradient-9);}.cls-34{fill:url(#linear-gradient-21);}.cls-35{fill:url(#linear-gradient-22);}.cls-36{fill:url(#linear-gradient-23);}.cls-37{fill:url(#linear-gradient-24);}.cls-38{fill:url(#linear-gradient-25);}.cls-39{fill:url(#linear-gradient-26);}.cls-40{fill:url(#radial-gradient-10);}.cls-41{fill:url(#radial-gradient-11);}.cls-42{fill:url(#radial-gradient-12);}.cls-43{fill:url(#radial-gradient-13);}.cls-44{fill:url(#linear-gradient-27);}.cls-45{fill:url(#linear-gradient-28);}.cls-46{fill:url(#linear-gradient-29);}.cls-47{fill:url(#linear-gradient-30);}.cls-48{fill:url(#linear-gradient-31);}.cls-49{fill:url(#linear-gradient-32);}.cls-50{fill:url(#linear-gradient-33);}.cls-51{fill:url(#radial-gradient-14);}.cls-52{fill:url(#radial-gradient-15);}.cls-53{fill:url(#linear-gradient-34);}.cls-54{fill:url(#linear-gradient-35);}.cls-55{fill:url(#linear-gradient-36);}.cls-56{fill:url(#linear-gradient-37);}.cls-57{fill:url(#linear-gradient-38);}.cls-58{fill:url(#linear-gradient-39);}.cls-59{fill:url(#radial-gradient-16);}.cls-60{fill:url(#radial-gradient-17);}.cls-61{fill:url(#radial-gradient-18);}.cls-62{fill:url(#radial-gradient-19);}.cls-63{fill:url(#linear-gradient-40);}.cls-64{fill:url(#linear-gradient-41);}.cls-65{fill:url(#linear-gradient-42);}.cls-66{fill:url(#linear-gradient-43);}.cls-67{fill:url(#linear-gradient-44);}.cls-68{fill:url(#linear-gradient-45);}.cls-69{fill:url(#linear-gradient-46);}.cls-70{fill:url(#radial-gradient-20);}.cls-71{fill:url(#radial-gradient-21);}.cls-72{fill:url(#linear-gradient-47);}.cls-73{fill:url(#linear-gradient-48);}.cls-74{fill:url(#linear-gradient-49);}.cls-75{fill:url(#linear-gradient-50);}.cls-76{fill:url(#linear-gradient-51);}.cls-77{fill:url(#linear-gradient-52);}.cls-78{fill:url(#radial-gradient-22);}.cls-79{fill:url(#radial-gradient-23);}.cls-80{fill:url(#radial-gradient-24);}</style><radialGradient id="radial-gradient" cx="128.15" cy="65.21" r="23.15" gradientTransform="translate(-163.12 70.38) scale(2.06 0.23)" gradientUnits="userSpaceOnUse"><stop offset="0" stop-color="#641e00"/><stop offset="0.11" stop-color="#7d4229"/><stop offset="0.29" stop-color="#a47b69"/><stop offset="0.47" stop-color="#c5aa9f"/><stop offset="0.64" stop-color="#decfc8"/><stop offset="0.78" stop-color="#f0e9e6"/><stop offset="0.91" stop-color="#fbf9f9"/><stop offset="1" stop-color="#fff"/></radialGradient><linearGradient id="linear-gradient" x1="100.96" y1="84.36" x2="100.96" y2="60.55" gradientUnits="userSpaceOnUse"><stop offset="0" stop-color="#be5100"/><stop offset="1" stop-color="#eb8b09"/></linearGradient><linearGradient id="linear-gradient-2" x1="104.1" y1="58.45" x2="66.94" y2="5.82" gradientUnits="userSpaceOnUse"><stop offset="0"/><stop offset="1" stop-color="#ebd7cf"/></linearGradient><linearGradient id="linear-gradient-3" x1="100.96" y1="50.19" x2="100.96" y2="84.54" gradientUnits="userSpaceOnUse"><stop offset="0"/><stop offset="1" stop-color="#eb8b09"/></linearGradient><linearGradient id="linear-gradient-4" x1="100.96" y1="62.39" x2="100.96" y2="88.51" gradientUnits="userSpaceOnUse"><stop offset="0" stop-color="#be5100"/><stop offset="1" stop-color="#662502"/></linearGradient><linearGradient id="linear-gradient-5" x1="127.07" y1="69.77" x2="138.94" y2="87.4" gradientUnits="userSpaceOnUse"><stop offset="0" stop-color="#fff"/><stop offset="1" stop-color="#662502"/></linearGradient><linearGradient id="linear-gradient-6" x1="100.96" y1="42.18" x2="100.96" y2="57.41" xlink:href="#linear-gradient-4"/><linearGradient id="linear-gradient-7" x1="100.96" y1="54.05" x2="100.96" y2="36.3" xlink:href="#linear-gradient-5"/><radialGradient id="radial-gradient-2" cx="37.55" cy="61.67" r="28.17" gradientTransform="translate(35.75 42.65) scale(1.74 0.24)" gradientUnits="userSpaceOnUse"><stop offset="0" stop-color="#f9c801"/><stop offset="1" stop-color="#e86100"/></radialGradient><radialGradient id="radial-gradient-3" cx="37.73" cy="61.3" r="26.64" gradientTransform="translate(35.75 38.08) scale(1.74 0.3)" gradientUnits="userSpaceOnUse"><stop offset="0" stop-color="#f9c801"/><stop offset="1"/></radialGradient><linearGradient id="linear-gradient-8" x1="100.13" y1="2.86" x2="100.13" y2="42.94" gradientUnits="userSpaceOnUse"><stop offset="0"/><stop offset="1" stop-color="#f6ed65"/></linearGradient><linearGradient id="linear-gradient-9" x1="100.13" y1="7.82" x2="100.13" y2="38.04" gradientUnits="userSpaceOnUse"><stop offset="0"/><stop offset="0.99" stop-color="#f60000"/></linearGradient><linearGradient id="linear-gradient-10" x1="50.77" y1="72.56" x2="151.35" y2="72.56" xlink:href="#linear-gradient-4"/><linearGradient id="linear-gradient-11" x1="47.08" y1="68.52" x2="154.92" y2="68.52" xlink:href="#linear-gradient-4"/><linearGradient id="linear-gradient-12" x1="169.65" y1="55.7" x2="27.51" y2="75.34" xlink:href="#linear-gradient-3"/><linearGradient id="linear-gradient-13" x1="168.03" y1="56.64" x2="28.45" y2="75.92" xlink:href="#linear-gradient-3"/><radialGradient id="radial-gradient-4" cx="192.51" cy="65.69" r="13.17" gradientTransform="translate(-356.99 -81.28) scale(2.38 1.81)" gradientUnits="userSpaceOnUse"><stop offset="0.01" stop-color="#ffdb03"/><stop offset="0.12" stop-color="#d5b703"/><stop offset="0.3" stop-color="#958002"/><stop offset="0.48" stop-color="#605201"/><stop offset="0.64" stop-color="#362f01"/><stop offset="0.79" stop-color="#191500"/><stop offset="0.91" stop-color="#060600"/><stop offset="1"/></radialGradient><radialGradient id="radial-gradient-5" cx="116.94" cy="81.72" r="13.17" gradientTransform="translate(-135.26 -87.92) scale(2.02 1.58)" gradientUnits="userSpaceOnUse"><stop offset="0.01" stop-color="#fff"/><stop offset="0.02" stop-color="#fafafa"/><stop offset="0.1" stop-color="#c6c6c6"/><stop offset="0.18" stop-color="#979797"/><stop offset="0.27" stop-color="#6e6e6e"/><stop offset="0.36" stop-color="#4c4c4c"/><stop offset="0.45" stop-color="#303030"/><stop offset="0.56" stop-color="#1b1b1b"/><stop offset="0.67" stop-color="#0c0c0c"/><stop offset="0.8" stop-color="#030303"/><stop offset="1"/></radialGradient><radialGradient id="radial-gradient-6" cx="116.94" cy="81.72" r="13.17" gradientTransform="translate(-135.26 -87.92) scale(2.02 1.58)" gradientUnits="userSpaceOnUse"><stop offset="0.01" stop-color="#ffff4d"/><stop offset="0.02" stop-color="#fafa4b"/><stop offset="0.1" stop-color="#c6c63c"/><stop offset="0.18" stop-color="#97972e"/><stop offset="0.27" stop-color="#6e6e21"/><stop offset="0.36" stop-color="#4c4c17"/><stop offset="0.45" stop-color="#30300f"/><stop offset="0.56" stop-color="#1b1b08"/><stop offset="0.67" stop-color="#0c0c04"/><stop offset="0.8" stop-color="#030301"/><stop offset="1"/></radialGradient><radialGradient id="radial-gradient-7" cx="165.51" cy="73.74" r="23.16" gradientTransform="translate(-163.12 89.74) scale(2.06 0.23)" xlink:href="#radial-gradient"/><linearGradient id="linear-gradient-14" x1="177.95" y1="105.7" x2="177.95" y2="81.89" xlink:href="#linear-gradient"/><linearGradient id="linear-gradient-15" x1="181.08" y1="79.79" x2="143.92" y2="27.14" xlink:href="#linear-gradient-2"/><linearGradient id="linear-gradient-16" x1="177.95" y1="71.52" x2="177.95" y2="105.87" xlink:href="#linear-gradient-3"/><linearGradient id="linear-gradient-17" x1="177.95" y1="83.72" x2="177.95" y2="109.85" xlink:href="#linear-gradient-4"/><linearGradient id="linear-gradient-18" x1="204.07" y1="91.11" x2="215.93" y2="108.74" xlink:href="#linear-gradient-5"/><linearGradient id="linear-gradient-19" x1="177.95" y1="63.51" x2="177.95" y2="78.74" xlink:href="#linear-gradient-4"/><linearGradient id="linear-gradient-20" x1="177.95" y1="75.38" x2="177.95" y2="57.63" xlink:href="#linear-gradient-5"/><radialGradient id="radial-gradient-8" cx="81.87" cy="71.77" r="28.18" gradientTransform="translate(35.75 61.6) scale(1.74 0.24)" xlink:href="#radial-gradient-2"/><radialGradient id="radial-gradient-9" cx="82.05" cy="71.41" r="26.64" gradientTransform="translate(35.75 56.38) scale(1.74 0.3)" xlink:href="#radial-gradient-3"/><linearGradient id="linear-gradient-21" x1="177.11" y1="24.18" x2="177.11" y2="64.28" xlink:href="#linear-gradient-8"/><linearGradient id="linear-gradient-22" x1="177.11" y1="29.14" x2="177.11" y2="59.37" xlink:href="#linear-gradient-9"/><linearGradient id="linear-gradient-23" x1="127.75" y1="93.89" x2="228.34" y2="93.89" xlink:href="#linear-gradient-4"/><linearGradient id="linear-gradient-24" x1="124.06" y1="89.86" x2="231.91" y2="89.86" xlink:href="#linear-gradient-4"/><linearGradient id="linear-gradient-25" x1="246.65" y1="77.04" x2="104.49" y2="96.67" xlink:href="#linear-gradient-3"/><linearGradient id="linear-gradient-26" x1="245.02" y1="77.98" x2="105.43" y2="97.25" xlink:href="#linear-gradient-3"/><radialGradient id="radial-gradient-10" cx="224.9" cy="77.46" r="13.18" xlink:href="#radial-gradient-4"/><radialGradient id="radial-gradient-11" cx="155.14" cy="95.25" r="13.18" xlink:href="#radial-gradient-5"/><radialGradient id="radial-gradient-12" cx="155.14" cy="95.25" r="13.18" xlink:href="#radial-gradient-6"/><radialGradient id="radial-gradient-13" cx="133.07" cy="72.99" r="13.14" gradientTransform="translate(-163.12 88.03) scale(2.06 0.23)" xlink:href="#radial-gradient"/><linearGradient id="linear-gradient-27" x1="111.09" y1="104.3" x2="111.09" y2="90.79" xlink:href="#linear-gradient"/><linearGradient id="linear-gradient-28" x1="112.87" y1="89.6" x2="91.79" y2="59.73" xlink:href="#linear-gradient-2"/><linearGradient id="linear-gradient-29" x1="111.09" y1="84.91" x2="111.09" y2="104.39" xlink:href="#linear-gradient-3"/><linearGradient id="linear-gradient-30" x1="111.09" y1="91.83" x2="111.09" y2="106.65" xlink:href="#linear-gradient-4"/><linearGradient id="linear-gradient-31" x1="125.9" y1="96.02" x2="132.64" y2="106.02" xlink:href="#linear-gradient-5"/><linearGradient id="linear-gradient-32" x1="111.09" y1="80.36" x2="111.09" y2="89" xlink:href="#linear-gradient-4"/><linearGradient id="linear-gradient-33" x1="111.09" y1="87.1" x2="111.09" y2="77.03" xlink:href="#linear-gradient-5"/><radialGradient id="radial-gradient-14" cx="43.38" cy="76.67" r="15.99" gradientTransform="translate(35.75 70.78) scale(1.74 0.24)" xlink:href="#radial-gradient-2"/><radialGradient id="radial-gradient-15" cx="43.48" cy="76.47" r="15.11" gradientTransform="translate(35.75 65.53) scale(1.74 0.3)" xlink:href="#radial-gradient-3"/><linearGradient id="linear-gradient-34" x1="110.62" y1="58.06" x2="110.62" y2="80.8" xlink:href="#linear-gradient-8"/><linearGradient id="linear-gradient-35" x1="110.62" y1="60.87" x2="110.62" y2="78.01" xlink:href="#linear-gradient-9"/><linearGradient id="linear-gradient-36" x1="82.61" y1="97.6" x2="139.68" y2="97.6" xlink:href="#linear-gradient-4"/><linearGradient id="linear-gradient-37" x1="80.52" y1="95.31" x2="141.7" y2="95.31" xlink:href="#linear-gradient-4"/><linearGradient id="linear-gradient-38" x1="150.06" y1="88.04" x2="69.41" y2="99.18" xlink:href="#linear-gradient-3"/><linearGradient id="linear-gradient-39" x1="149.14" y1="88.57" x2="69.95" y2="99.51" xlink:href="#linear-gradient-3"/><radialGradient id="radial-gradient-16" cx="196.86" cy="87.8" r="7.47" xlink:href="#radial-gradient-4"/><radialGradient id="radial-gradient-17" cx="122.07" cy="106.28" r="7.47" xlink:href="#radial-gradient-5"/><radialGradient id="radial-gradient-18" cx="122.07" cy="106.28" r="7.47" xlink:href="#radial-gradient-6"/><radialGradient id="radial-gradient-19" cx="94.8" cy="65.91" r="13.14" gradientTransform="translate(-163.12 71.99) scale(2.06 0.23)" xlink:href="#radial-gradient"/><linearGradient id="linear-gradient-40" x1="32.23" y1="86.62" x2="32.23" y2="73.11" xlink:href="#linear-gradient"/><linearGradient id="linear-gradient-41" x1="34.01" y1="71.92" x2="12.93" y2="42.05" xlink:href="#linear-gradient-2"/><linearGradient id="linear-gradient-42" x1="32.23" y1="67.23" x2="32.23" y2="86.71" xlink:href="#linear-gradient-3"/><linearGradient id="linear-gradient-43" x1="32.23" y1="74.15" x2="32.23" y2="88.97" xlink:href="#linear-gradient-4"/><linearGradient id="linear-gradient-44" x1="47.05" y1="78.34" x2="53.78" y2="88.34" xlink:href="#linear-gradient-5"/><linearGradient id="linear-gradient-45" x1="32.23" y1="62.68" x2="32.23" y2="71.32" xlink:href="#linear-gradient-4"/><linearGradient id="linear-gradient-46" x1="32.23" y1="69.42" x2="32.23" y2="59.34" xlink:href="#linear-gradient-5"/><radialGradient id="radial-gradient-20" cx="-2.02" cy="68.29" r="15.99" gradientTransform="translate(35.75 55.08) scale(1.74 0.24)" xlink:href="#radial-gradient-2"/><radialGradient id="radial-gradient-21" cx="-1.92" cy="68.09" r="15.11" gradientTransform="translate(35.75 50.37) scale(1.74 0.3)" xlink:href="#radial-gradient-3"/><linearGradient id="linear-gradient-47" x1="31.76" y1="40.37" x2="31.76" y2="63.12" xlink:href="#linear-gradient-8"/><linearGradient id="linear-gradient-48" x1="31.76" y1="43.19" x2="31.76" y2="60.33" xlink:href="#linear-gradient-9"/><linearGradient id="linear-gradient-49" x1="3.76" y1="79.92" x2="60.82" y2="79.92" xlink:href="#linear-gradient-4"/><linearGradient id="linear-gradient-50" x1="1.66" y1="77.63" x2="62.85" y2="77.63" xlink:href="#linear-gradient-4"/><linearGradient id="linear-gradient-51" x1="71.21" y1="70.36" x2="-9.44" y2="81.49" xlink:href="#linear-gradient-3"/><linearGradient id="linear-gradient-52" x1="70.28" y1="70.89" x2="-8.91" y2="81.82" xlink:href="#linear-gradient-3"/><radialGradient id="radial-gradient-22" cx="163.67" cy="78.05" r="7.47" xlink:href="#radial-gradient-4"/><radialGradient id="radial-gradient-23" cx="82.95" cy="95.07" r="7.47" xlink:href="#radial-gradient-5"/><radialGradient id="radial-gradient-24" cx="82.95" cy="95.07" r="7.47" xlink:href="#radial-gradient-6"/></defs><title>dia</title><g class="cls-1"><g id="Layer_2" data-name="Layer 2"><g id="Layer_7" data-name="Layer 7"><ellipse class="cls-2" cx="100.96" cy="85.48" rx="56.21" ry="6.84"/><path class="cls-3" d="M101,42.24c-31.38,0-56.81,5.27-56.81,11.77S69.59,65.79,101,65.79,157.78,60.52,157.78,54,132.34,42.24,101,42.24"/><path class="cls-4" d="M101,42.24c-31.38,0-56.81,5.27-56.81,11.77S69.59,65.79,101,65.79,157.78,60.52,157.78,54,132.34,42.24,101,42.24"/><path class="cls-5" d="M101,65.07c-30.8,0-55.86-5.08-56.77-11.41a2.53,2.53,0,0,0,0,.36c0,6.5,25.44,11.77,56.81,11.77S157.78,60.52,157.78,54a2.53,2.53,0,0,0,0-.36C156.82,60,131.76,65.07,101,65.07Z"/><path class="cls-6" d="M44.15,54c0,17.38,25.44,31.47,56.81,31.47S157.78,71.39,157.78,54c0,6.5-25.44,11.77-56.81,11.77S44.15,60.52,44.15,54"/><path class="cls-7" d="M147,60.91c-5.35,13.24-25.74,23.32-50.73,24.45,1.55.07,3.12.12,4.7.12,31.38,0,56.81-14.09,56.81-31.47C157.78,56.59,153.77,59,147,60.91Z"/><path class="cls-8" d="M101,45.41c-28.74,0-52,3.85-52,8.6s23.3,8.6,52,8.6,52-3.85,52-8.6-23.3-8.6-52-8.6"/><path class="cls-9" d="M101,46.43c27.7,0,50.34,3.58,51.94,8.09A1.53,1.53,0,0,0,153,54c0-4.75-23.3-8.6-52-8.6s-52,3.85-52,8.6a1.53,1.53,0,0,0,.1.51C50.62,50,73.26,46.43,101,46.43Z"/><path class="cls-10" d="M101,51.85c-21.86,0-40.57,2.23-48.27,5.39,7.71,3.16,26.41,5.39,48.27,5.39s40.57-2.23,48.28-5.39c-7.71-3.16-26.41-5.39-48.28-5.39"/><path class="cls-11" d="M101,47.45c-21.91,0-43.9,3-50.13,8.87C56.94,60,77.06,62.62,101,62.62s44-2.66,50.13-6.29C144.13,50.23,122.87,47.45,101,47.45Z"/><path class="cls-12" d="M149.72,70.1l-.3.1c-12.35,4-29.41,6.45-48.24,6.45S65.29,74.19,52.94,70.2l-.3-.1c-.4-.37-.77-.74-1.14-1.12l-.76-.26c.53.56,1.09,1.1,1.68,1.64l.3.1c12.35,4,29.41,6.45,48.24,6.45s35.89-2.47,48.24-6.45l.3-.1c.59-.54,1.15-1.08,1.68-1.64l-.08,0C150.66,69.21,150.21,69.66,149.72,70.1Z"/><path class="cls-12" d="M149.42,66.87c-12.35,4-29.41,6.45-48.24,6.45s-35.89-2.47-48.24-6.45q-2.48-.8-4.7-1.69c-.23-.32-.43-.65-.64-1L47.06,64q.45.74,1,1.47,2.22.88,4.7,1.69c12.35,4,29.41,6.45,48.24,6.45s35.89-2.47,48.24-6.45q2.48-.8,4.7-1.69l.16-.25Q151.87,66.08,149.42,66.87Z"/><path class="cls-13" d="M101,37.28h0a.94.94,0,0,0-.83,1V58.81a.94.94,0,0,0,.83,1h0a.94.94,0,0,0,.83-1V38.29a.94.94,0,0,0-.83-1"/><path class="cls-14" d="M100.94,48c19-9.1-1.88-26.12,2.36-48-12.47,10.06-18.43,43.13-2.36,48"/><path class="cls-15" d="M100.94,48c19-9.1-1.88-26.12,2.36-48-12.47,10.06-18.43,43.13-2.36,48"/><path class="cls-16" d="M149.39,69.21c-12.33,4-29.37,6.42-48.21,6.42S65.31,73.17,53,69.21q-1.13-.36-2.21-.74c.54.56,1.1,1.1,1.69,1.64l.3.1c12.4,4,29.52,6.45,48.42,6.45s36-2.47,48.42-6.45l.12,0c.57-.53,1.11-1.07,1.63-1.62C150.71,68.77,150.06,69,149.39,69.21Z"/><path class="cls-17" d="M154.92,63.87q-2.57,1.06-5.53,2c-12.33,4-29.37,6.42-48.21,6.42S65.31,69.84,53,65.88c-2.11-.68-4.08-1.4-5.9-2.16q.45.74,1,1.47,2.23.88,4.72,1.69c12.4,4,29.52,6.45,48.42,6.45s36-2.47,48.42-6.45c1.54-.49,3-1,4.38-1.56Q154.48,64.6,154.92,63.87Z"/><g class="cls-18"><path class="cls-19" d="M103.56,65.79c25,0,46.18-3.34,53.79-8a17.83,17.83,0,0,0,.42-3.79c0,6.41-24.74,11.62-55.51,11.77Z"/><path class="cls-20" d="M47.17,57.8c-2-1.19-3-2.46-3-3.79,0,17.38,25.44,31.47,56.81,31.47l1.3,0C73.79,85.11,50.5,73.16,47.17,57.8Z"/></g><ellipse class="cls-21" cx="100.47" cy="37.81" rx="31.31" ry="23.88"/><ellipse class="cls-22" cx="100.47" cy="40.93" rx="26.55" ry="20.77"/><ellipse class="cls-23" cx="100.47" cy="40.93" rx="26.55" ry="20.77"/><ellipse class="cls-24" cx="177.95" cy="106.82" rx="56.21" ry="6.84"/><path class="cls-25" d="M177.95,63.57c-31.38,0-56.82,5.27-56.82,11.77s25.44,11.77,56.82,11.77,56.82-5.27,56.82-11.77-25.44-11.77-56.82-11.77"/><path class="cls-26" d="M177.95,63.57c-31.38,0-56.82,5.27-56.82,11.77s25.44,11.77,56.82,11.77,56.82-5.27,56.82-11.77-25.44-11.77-56.82-11.77"/><path class="cls-27" d="M177.95,86.41c-30.8,0-55.86-5.08-56.78-11.42a2.52,2.52,0,0,0,0,.36c0,6.5,25.44,11.77,56.82,11.77s56.82-5.27,56.82-11.77a2.52,2.52,0,0,0,0-.36C233.81,81.33,208.75,86.41,177.95,86.41Z"/><path class="cls-28" d="M121.13,75.35c0,17.38,25.44,31.47,56.82,31.47s56.82-14.09,56.82-31.47c0,6.5-25.44,11.77-56.82,11.77s-56.82-5.27-56.82-11.77"/><path class="cls-29" d="M224,82.25c-5.35,13.24-25.75,23.32-50.73,24.46,1.55.07,3.12.12,4.7.12,31.38,0,56.82-14.09,56.82-31.47C234.77,77.92,230.76,80.31,224,82.25Z"/><path class="cls-30" d="M177.95,66.74c-28.74,0-52,3.85-52,8.6s23.3,8.6,52,8.6,52-3.85,52-8.6-23.3-8.6-52-8.6"/><path class="cls-31" d="M177.95,67.76c27.71,0,50.35,3.58,51.95,8.09a1.53,1.53,0,0,0,.1-.51c0-4.75-23.3-8.6-52-8.6s-52,3.85-52,8.6a1.53,1.53,0,0,0,.1.51C127.6,71.34,150.24,67.76,177.95,67.76Z"/><path class="cls-32" d="M177.95,73.18c-21.86,0-40.57,2.23-48.28,5.39,7.71,3.16,26.42,5.39,48.28,5.39s40.58-2.23,48.28-5.39c-7.71-3.16-26.42-5.39-48.28-5.39"/><path class="cls-33" d="M177.95,68.78c-21.91,0-43.91,3-50.13,8.87,6.1,3.63,26.23,6.3,50.14,6.3s44-2.67,50.14-6.3C221.12,71.56,199.86,68.78,177.95,68.78Z"/><path class="cls-12" d="M226.72,91.44l-.3.1C214.06,95.52,197,98,178.17,98s-35.89-2.47-48.25-6.45l-.3-.1c-.4-.37-.77-.74-1.14-1.12l-.76-.26c.53.56,1.09,1.1,1.68,1.64l.3.1c12.35,4,29.41,6.45,48.25,6.45s35.89-2.47,48.25-6.45l.3-.1c.59-.54,1.15-1.08,1.68-1.64l-.08,0C227.65,90.55,227.2,91,226.72,91.44Z"/><path class="cls-12" d="M226.42,88.21c-12.35,4-29.41,6.46-48.25,6.46s-35.89-2.47-48.25-6.46q-2.48-.8-4.7-1.69c-.23-.32-.43-.65-.64-1l-.54-.22q.45.74,1,1.47,2.22.88,4.7,1.69c12.35,4,29.41,6.46,48.25,6.46s35.89-2.47,48.25-6.46q2.48-.8,4.7-1.69l.16-.25Q228.86,87.41,226.42,88.21Z"/><path class="cls-13" d="M177.95,58.61h0a.94.94,0,0,0-.83,1V80.14a.94.94,0,0,0,.83,1h0a.94.94,0,0,0,.83-1V59.62a.94.94,0,0,0-.83-1"/><path class="cls-34" d="M177.93,69.33c19-9.11-1.88-26.12,2.36-48-12.47,10.06-18.44,43.14-2.36,48"/><path class="cls-35" d="M177.93,69.33c19-9.11-1.88-26.12,2.36-48-12.47,10.06-18.44,43.14-2.36,48"/><path class="cls-36" d="M226.38,90.54C214.05,94.51,197,97,178.17,97S142.29,94.51,130,90.54q-1.13-.36-2.21-.74c.54.56,1.1,1.1,1.69,1.64l.3.1c12.4,4,29.53,6.45,48.43,6.45s36-2.47,48.43-6.45l.12,0c.57-.53,1.11-1.07,1.63-1.62C227.7,90.11,227.05,90.33,226.38,90.54Z"/><path class="cls-37" d="M231.91,85.2q-2.57,1.06-5.53,2c-12.33,4-29.38,6.42-48.21,6.42S142.29,91.18,130,87.21c-2.11-.68-4.08-1.4-5.9-2.16q.45.74,1,1.47,2.23.88,4.72,1.69c12.4,4,29.53,6.46,48.43,6.46s36-2.47,48.43-6.46c1.54-.5,3-1,4.38-1.56Q231.48,85.93,231.91,85.2Z"/><g class="cls-18"><path class="cls-38" d="M180.55,87.12c25,0,46.18-3.34,53.8-8a17.84,17.84,0,0,0,.42-3.79c0,6.41-24.74,11.62-55.52,11.77Z"/><path class="cls-39" d="M124.15,79.14c-2-1.19-3-2.46-3-3.79,0,17.38,25.44,31.47,56.82,31.47l1.3,0C150.78,106.44,127.48,94.49,124.15,79.14Z"/></g><ellipse class="cls-40" cx="177.45" cy="59.14" rx="31.31" ry="23.88"/><ellipse class="cls-41" cx="177.45" cy="62.26" rx="26.56" ry="20.77"/><ellipse class="cls-42" cx="177.45" cy="62.26" rx="26.56" ry="20.77"/><ellipse class="cls-43" cx="111.09" cy="104.93" rx="31.89" ry="3.88"/><path class="cls-44" d="M111.09,80.4c-17.8,0-32.23,3-32.23,6.68s14.43,6.68,32.23,6.68,32.23-3,32.23-6.68-14.43-6.68-32.23-6.68"/><path class="cls-45" d="M111.09,80.4c-17.8,0-32.23,3-32.23,6.68s14.43,6.68,32.23,6.68,32.23-3,32.23-6.68-14.43-6.68-32.23-6.68"/><path class="cls-46" d="M111.09,93.35c-17.47,0-31.69-2.88-32.21-6.48a1.44,1.44,0,0,0,0,.2c0,3.69,14.43,6.68,32.23,6.68s32.23-3,32.23-6.68a1.42,1.42,0,0,0,0-.2C142.78,90.47,128.56,93.35,111.09,93.35Z"/><path class="cls-47" d="M78.85,87.08c0,9.86,14.43,17.85,32.23,17.85s32.23-8,32.23-17.85c0,3.69-14.43,6.68-32.23,6.68s-32.23-3-32.23-6.68"/><path class="cls-48" d="M137.2,91c-3,7.51-14.61,13.23-28.78,13.87.88,0,1.77.07,2.67.07,17.8,0,32.23-8,32.23-17.85C143.32,88.54,141,89.89,137.2,91Z"/><path class="cls-49" d="M111.09,82.2c-16.31,0-29.53,2.19-29.53,4.88S94.78,92,111.09,92s29.52-2.19,29.52-4.88-13.22-4.88-29.52-4.88"/><path class="cls-50" d="M111.09,82.78c15.72,0,28.56,2,29.47,4.59a.87.87,0,0,0,.06-.29c0-2.69-13.22-4.88-29.52-4.88s-29.53,2.19-29.53,4.88a.87.87,0,0,0,.06.29C82.53,84.81,95.37,82.78,111.09,82.78Z"/><path class="cls-51" d="M111.09,85.85c-12.4,0-23,1.26-27.39,3.06,4.37,1.79,15,3.06,27.39,3.06s23-1.26,27.39-3.06c-4.37-1.79-15-3.06-27.39-3.06"/><path class="cls-52" d="M111.09,83.36c-12.43,0-24.91,1.68-28.44,5C86.11,90.45,97.53,92,111.09,92s25-1.51,28.44-3.57C135.58,84.93,123.52,83.36,111.09,83.36Z"/><path class="cls-12" d="M138.76,96.21l-.17.06c-7,2.26-16.69,3.66-27.37,3.66s-20.36-1.4-27.37-3.66l-.17-.06c-.23-.21-.44-.42-.65-.63l-.43-.15c.3.32.62.63,1,.93l.17.06c7,2.26,16.69,3.66,27.37,3.66s20.36-1.4,27.37-3.66l.17-.06c.34-.3.65-.61,1-.93l0,0C139.29,95.7,139,96,138.76,96.21Z"/><path class="cls-12" d="M138.58,94.37c-7,2.26-16.69,3.66-27.37,3.66s-20.36-1.4-27.37-3.66q-1.41-.45-2.67-1c-.13-.18-.25-.37-.36-.56l-.31-.12q.25.42.54.83,1.26.5,2.67,1c7,2.26,16.69,3.66,27.37,3.66s20.36-1.4,27.37-3.66q1.41-.45,2.67-1l.09-.14Q140,93.92,138.58,94.37Z"/><path class="cls-13" d="M111.09,77.58h0a.53.53,0,0,0-.47.58V89.8a.53.53,0,0,0,.47.58h0a.53.53,0,0,0,.47-.58V78.16a.53.53,0,0,0-.47-.58"/><path class="cls-53" d="M111.08,83.66c10.77-5.17-1.06-14.82,1.34-27.23-7.08,5.71-10.46,24.47-1.34,27.23"/><path class="cls-54" d="M111.08,83.66c10.77-5.17-1.06-14.82,1.34-27.23-7.08,5.71-10.46,24.47-1.34,27.23"/><path class="cls-55" d="M138.57,95.7c-7,2.25-16.67,3.64-27.35,3.64S90.86,97.95,83.86,95.7l-1.25-.42c.3.32.62.63,1,.93l.17.06c7,2.26,16.75,3.66,27.47,3.66s20.44-1.4,27.47-3.66l.07,0c.32-.3.63-.61.92-.92Z"/><path class="cls-56" d="M141.7,92.67q-1.46.6-3.14,1.14c-7,2.25-16.67,3.64-27.35,3.64s-20.35-1.39-27.35-3.64c-1.2-.39-2.32-.79-3.35-1.23q.26.42.55.83,1.26.5,2.68,1c7,2.26,16.75,3.66,27.47,3.66s20.44-1.4,27.47-3.66c.87-.28,1.7-.58,2.49-.88Q141.46,93.08,141.7,92.67Z"/><g class="cls-18"><path class="cls-57" d="M112.56,93.76c14.17,0,26.2-1.9,30.52-4.53a10.12,10.12,0,0,0,.24-2.15c0,3.64-14,6.59-31.5,6.68Z"/><path class="cls-58" d="M80.57,89.23c-1.11-.67-1.72-1.4-1.72-2.15,0,9.86,14.43,17.85,32.23,17.85h.74C95.67,104.72,82.46,97.94,80.57,89.23Z"/></g><ellipse class="cls-59" cx="110.81" cy="77.88" rx="17.76" ry="13.55"/><ellipse class="cls-60" cx="110.81" cy="79.65" rx="15.07" ry="11.78"/><ellipse class="cls-61" cx="110.81" cy="79.65" rx="15.07" ry="11.78"/><ellipse class="cls-62" cx="32.23" cy="87.25" rx="31.89" ry="3.88"/><path class="cls-63" d="M32.23,62.72C14.43,62.72,0,65.71,0,69.4s14.43,6.68,32.23,6.68,32.23-3,32.23-6.68S50,62.72,32.23,62.72"/><path class="cls-64" d="M32.23,62.72C14.43,62.72,0,65.71,0,69.4s14.43,6.68,32.23,6.68,32.23-3,32.23-6.68S50,62.72,32.23,62.72"/><path class="cls-65" d="M32.23,75.67C14.76,75.67.54,72.79,0,69.19a1.42,1.42,0,0,0,0,.2c0,3.69,14.43,6.68,32.23,6.68s32.23-3,32.23-6.68a1.44,1.44,0,0,0,0-.2C63.93,72.79,49.71,75.67,32.23,75.67Z"/><path class="cls-66" d="M0,69.4c0,9.86,14.43,17.85,32.23,17.85s32.23-8,32.23-17.85c0,3.69-14.43,6.68-32.23,6.68S0,73.09,0,69.4"/><path class="cls-67" d="M58.35,73.31c-3,7.51-14.61,13.23-28.78,13.87.88,0,1.77.07,2.67.07,17.8,0,32.23-8,32.23-17.85C64.47,70.86,62.2,72.21,58.35,73.31Z"/><path class="cls-68" d="M32.23,64.52c-16.31,0-29.52,2.19-29.52,4.88s13.22,4.88,29.52,4.88,29.52-2.19,29.52-4.88-13.22-4.88-29.52-4.88"/><path class="cls-69" d="M32.23,65.1c15.72,0,28.56,2,29.47,4.59a.87.87,0,0,0,.06-.29c0-2.69-13.22-4.88-29.52-4.88S2.71,66.7,2.71,69.4a.87.87,0,0,0,.06.29C3.67,67.13,16.52,65.1,32.23,65.1Z"/><path class="cls-70" d="M32.23,68.17c-12.4,0-23,1.26-27.39,3.06,4.37,1.79,15,3.06,27.39,3.06s23-1.26,27.39-3.06c-4.37-1.79-15-3.06-27.39-3.06"/><path class="cls-71" d="M32.23,65.67c-12.43,0-24.91,1.68-28.44,5,3.46,2.06,14.88,3.57,28.44,3.57s25-1.51,28.44-3.57C56.73,67.25,44.67,65.67,32.23,65.67Z"/><path class="cls-12" d="M59.9,78.53l-.17.06c-7,2.26-16.69,3.66-27.37,3.66S12,80.84,5,78.58l-.17-.06c-.23-.21-.44-.42-.65-.63l-.43-.15c.3.32.62.63,1,.93l.17.06c7,2.26,16.69,3.66,27.37,3.66S52.6,81,59.6,78.73l.17-.06c.34-.3.65-.61,1-.93l0,0C60.43,78,60.18,78.28,59.9,78.53Z"/><path class="cls-12" d="M59.73,76.69C52.72,79,43,80.35,32.36,80.35S12,79,5,76.69q-1.41-.45-2.67-1c-.13-.18-.25-.37-.36-.56l-.31-.12q.25.42.54.83,1.26.5,2.67,1c7,2.26,16.69,3.66,27.37,3.66s20.36-1.4,27.37-3.66q1.41-.45,2.67-1l.09-.14Q61.12,76.24,59.73,76.69Z"/><path class="cls-13" d="M32.23,59.9h0a.53.53,0,0,0-.47.58V72.12a.53.53,0,0,0,.47.58h0a.53.53,0,0,0,.47-.58V60.48a.53.53,0,0,0-.47-.58"/><path class="cls-72" d="M32.22,66C43,60.82,31.16,51.16,33.56,38.75,26.49,44.46,23.1,63.22,32.22,66"/><path class="cls-73" d="M32.22,66C43,60.82,31.16,51.16,33.56,38.75,26.49,44.46,23.1,63.22,32.22,66"/><path class="cls-74" d="M59.71,78c-7,2.25-16.67,3.64-27.35,3.64S12,80.27,5,78L3.76,77.6c.3.32.62.63,1,.93l.17.06c7,2.26,16.75,3.66,27.47,3.66s20.44-1.4,27.47-3.66l.07,0c.32-.3.63-.61.92-.92Z"/><path class="cls-75" d="M62.85,75q-1.46.6-3.14,1.14c-7,2.25-16.67,3.64-27.35,3.64S12,78.38,5,76.13c-1.2-.39-2.32-.79-3.35-1.23q.26.42.55.83,1.26.5,2.68,1c7,2.26,16.75,3.66,27.47,3.66S52.8,79,59.83,76.69c.87-.28,1.7-.58,2.49-.88Q62.6,75.4,62.85,75Z"/><g class="cls-18"><path class="cls-76" d="M33.71,76.08c14.17,0,26.2-1.9,30.52-4.53a10.12,10.12,0,0,0,.24-2.15c0,3.64-14,6.59-31.5,6.68Z"/><path class="cls-77" d="M1.72,71.55C.61,70.87,0,70.15,0,69.4c0,9.86,14.43,17.85,32.23,17.85H33C16.82,87,3.61,80.26,1.72,71.55Z"/></g><ellipse class="cls-78" cx="31.95" cy="60.2" rx="17.76" ry="13.55"/><ellipse class="cls-79" cx="31.95" cy="61.97" rx="15.07" ry="11.78"/><ellipse class="cls-80" cx="31.95" cy="61.97" rx="15.07" ry="11.78"/></g></g></g></svg>