<svg xmlns="http://www.w3.org/2000/svg" viewBox="0 0 184.61 53.61"><defs><style>.cls-1{fill:#ffc60b;}.cls-2{fill:#231f20;}.cls-3{fill:#ffb800;}</style></defs><title>Asset 15</title><g id="Layer_2" data-name="Layer 2"><g id="maybank_Logo" data-name="maybank Logo"><rect class="cls-1" width="184.61" height="53.61"/><path class="cls-2" d="M113.66,35.92a18.61,18.61,0,0,1-6.17-1V15.76h5v6.45a8.93,8.93,0,0,1,2.6-.41c4.27,0,7.2,2.38,7.2,6.55C122.33,33.47,119.25,35.92,113.66,35.92Zm.46-11a4.79,4.79,0,0,0-1.59.28v7.29a5.41,5.41,0,0,0,1.47.18c2.07,0,3.3-1.44,3.3-4S116.14,24.94,114.12,24.94Z"/><path class="cls-2" d="M130.73,35.92c-5.19,0-7.75-1.59-7.75-4.5,0-3.62,4.46-4.45,9.43-4.68v-.53c0-1.09-.91-1.59-2.62-1.59a16,16,0,0,0-4.67.84l-1.22-2.78a19.53,19.53,0,0,1,6.5-1.08c4.49,0,6.75,1.51,6.75,5.13v8.22A18.81,18.81,0,0,1,130.73,35.92Zm1.68-6.58c-2.72.1-4.76.35-4.76,2,0,1.11,1.13,1.72,2.93,1.72a7.9,7.9,0,0,0,1.83-.2Z"/><path class="cls-2" d="M148.31,35.62V26.76c0-1.14-.65-1.89-2.45-1.89a5.19,5.19,0,0,0-1.76.34v10.4h-5v-13a21.78,21.78,0,0,1,6.87-1.08c5.16,0,7.42,1.74,7.42,4.7v9.34Z"/><path class="cls-2" d="M165.37,35.62l-5-6.81h-.06v6.81h-5V15.76h5V27.82h.06L164.89,22h5.68l-5.13,6.35L171,35.62Z"/><path class="cls-2" d="M98,41.06H92.74l2.47-5.44L89,22H94.5l3.34,9.69L101.15,22h5.48Z"/><polygon points="71.82 17.3 65.96 17.3 62.09 28.62 58.21 17.3 52.35 17.3 49.69 35.62 54.49 35.62 56.01 23.03 60.5 35.62 63.67 35.62 68.16 23.03 69.69 35.62 74.48 35.62 71.82 17.3"/><path class="cls-2" d="M82.87,35.92c-5.19,0-7.75-1.59-7.75-4.5,0-3.62,4.46-4.45,9.43-4.68v-.53c0-1.09-.92-1.59-2.62-1.59a16,16,0,0,0-4.67.84L76,22.66a21.94,21.94,0,0,1,6.5-1.08c4.49,0,6.75,1.51,6.75,5.13v8.22A18.8,18.8,0,0,1,82.87,35.92Zm1.68-6.58c-2.72.1-4.76.35-4.76,2,0,1.11,1.13,1.72,2.93,1.72a7.91,7.91,0,0,0,1.83-.2Z"/><path class="cls-3" d="M43.85,26.45a14.1,14.1,0,1,1-14.1-14,14.07,14.07,0,0,1,14.1,14"/><path class="cls-2" d="M29.74,11.19A15.25,15.25,0,1,0,45.08,26.45,15.29,15.29,0,0,0,29.74,11.19m0,29.28a14,14,0,1,1,14.1-14,14.07,14.07,0,0,1-14.1,14"/><path class="cls-2" d="M23.62,25.75c-1.1-.28-2.06,1-2.6,2,.19-1.32,1.82-3.48,2.6-2"/><path class="cls-2" d="M21.21,25.76c.37-1.26,1.24-1.72,1.7-1.35a3.44,3.44,0,0,0-1.7,1.35"/><path class="cls-2" d="M24,27.78c.56-.48.51-1.18-.37-1.41-.65-.17-2,1-2.19,2.29.56-.72,2.17-2,2.56-.88"/><path class="cls-2" d="M32.82,31.12c.1-1.66-1.51-2.43-1.82-4.12s2.52-4.4.73-7.16c3.36,2.7.73,4.29,2.43,6.53a3.23,3.23,0,0,1-1.5-1.08c-.95,1.24,2.32,2.94.17,5.83"/><path class="cls-2" d="M27.4,17.81c.4,0,1.08.28.8.6-.93.87-2.19.52-3.19,1.39.41-1.09,2.23-1.24,2.39-2"/><path class="cls-2" d="M30.43,19c.39-.44,0-1-1.57-1.23,1.67.81-1,1-1.11,2.38-.88.35-1.58-.22-2,.17s-.91.12-.77-.32a.63.63,0,0,0,.09,1.16c.1,0,.18.14.11.21-.54.5-.79.94-.23,1.45a2.91,2.91,0,0,1,.81-1c.32.22.89.07,1.65-.76,0,0,.09,0,.07,0-.61,2.08-2.16,2.42-2.65,2.31.3.45,2.27.73,2.52-.15.56-2,2.48-2.83.82-2.8.44-.52,1.95-1,2.27-1.38m-4.17,2.42c-.12,0-.24-.17-.27-.39.16.41.56.21.33-.37.14,0,.37,0,.79,0-.44.23-.63.77-.86.76"/><path class="cls-2" d="M31.26,18A6.45,6.45,0,0,1,33,19.44c.1-.84-.38-2.52-1.09-2.9-.31-.17-.75,1-.61,1.43"/><path class="cls-2" d="M18.49,24.73a8.81,8.81,0,0,1,3.81-4.16c.47-1.2.31-2,5.25-3.93.12-.73.1-1.59.31-1.59a2.46,2.46,0,0,1,1.46,1.07l.54-.06a8,8,0,0,1,.77-2.18c.36-.55,1-.61,1.93.11a12.77,12.77,0,0,1,2.83,2.66,10,10,0,0,1,4.17,2.84,4.46,4.46,0,0,0-1.91-.63A4.94,4.94,0,0,1,39,24c-.23-2.31-1.94-3.27-3-4,.57,2-1.89,1.28-2.64-.18a.82.82,0,0,0,.65,0,7.11,7.11,0,0,0-2.12-5.21c-.8-.66-1.24.93-1.51,2.14a.84.84,0,0,1-.87.67,2.32,2.32,0,0,0,.23-.65A11.48,11.48,0,0,0,26.26,18c-2.18,1-2.73,1.47-3.21,3.12a15.65,15.65,0,0,0-4.56,3.65"/><path class="cls-2" d="M29.38,24.33a4.53,4.53,0,0,1,0,5.18c.46-2-.81-5.89-2.21-3.92a1.51,1.51,0,0,1,1,1.92,2.15,2.15,0,0,0-2.35-1.17,1.31,1.31,0,0,1-1.62-.54c-.63-.92.43-2.05-1.38-2,2.18-1.1,1.55,1,2.6,1.29,1.22.29,1.36-.46,1.78-.94a1.19,1.19,0,0,1,1.62-.28c.31-1-.14-2.44.75-3.24a1.88,1.88,0,0,1,1.92.17c-.77,0-1.68.9-2.13,3.48"/><path class="cls-2" d="M40.51,20.54c1.11,3.85.8,7.55-.35,9.76.14-1.39-1.08-3.41-.59-5.78-2.32,2.24,1.3,7.74-4,11.34a10.27,10.27,0,0,0,.86-5.52,1.87,1.87,0,0,1,.74.75,8.5,8.5,0,0,0-.33-5.53,2.65,2.65,0,0,1,1.15.55c.13-3.18-2.21-3.42-2.65-4.29,0,.93,1.09,1.71,1.29,2.93A3.17,3.17,0,0,0,35,24.39a6.52,6.52,0,0,1,1.52,5,2.83,2.83,0,0,0-1.66-.74c.7,1,1,3.8.11,5.06a2.88,2.88,0,0,0-.46-1.45A3.28,3.28,0,0,1,32,34.64a2.1,2.1,0,0,0-.68-3.48c-1.36-.46-3.09.46-3.78,3.68-1,.29-3.93-.34-2.17-2.23,1.08.36,3.8-1.46,3.62-2.73a2.94,2.94,0,0,0-3.17-2.38c-1.59,0-2.67,1.5-4,2.14-1.09-.17-1.46-.32-2-1.76-.07-.88.88-1.5.86-2.41-.77.16-1-1-2.47.2-.12-.22.08-.73.08-.73a2,2,0,0,0-.67,1.22,3.73,3.73,0,0,0,1.39,1.5c.89,2.36,1.8,2.63,2.74,2.71a3,3,0,0,0,1.74,1.18,5.7,5.7,0,0,1-.08-2c1.93-1.92,3.36-.75,3.54-.24-1.71.35-.5,4-3.34,2.37a2.81,2.81,0,0,0,.4,1.84c.29,2.5,3.44,1.88,4.42,2.32-.1-2.42,1.24-4.19,2.4-4s1.46,2-.52,3.82a5.53,5.53,0,0,0,3.69-.88c.1.62-.7,2.44-1.69,3.72A12.22,12.22,0,0,0,40.51,20.54Zm-21,6.79a3.89,3.89,0,0,1-1.08-1.15,1.88,1.88,0,0,1,.83-.56c.31-.08.51.09.46.19s-.31.1-.4.33.27.46.35.63A.4.4,0,0,1,19.5,27.33Zm2.76,2.75a1.19,1.19,0,0,1,.69-.52A4.92,4.92,0,0,0,23.11,31S22.27,30.5,22.26,30.09Zm4.33.59c.22,0,.4.2.6.06s0-.72-.16-.91c.19,0,.95,0,.91.31-.09.71-.54.93-1.62,1.46C26.51,31.42,26.48,31,26.59,30.67ZM24.4,33.05a1.23,1.23,0,0,1-.36-.86,3.05,3.05,0,0,0,.86.35A1.44,1.44,0,0,1,24.4,33.05Z"/></g></g></svg>