<svg xmlns="http://www.w3.org/2000/svg" viewBox="0 0 403 78.2"><defs><style>.cls-1{fill:#fff;}</style></defs><title>happy</title><g id="Layer_2" data-name="Layer 2"><g id="Layer_8" data-name="Layer 8"><path class="cls-1" d="M5.86,38.78c-.87-.2-1.67-.33-2.53-.47a20.21,20.21,0,0,1-2.14-.47,4,4,0,0,1-.93-.4c-.33-.27-.33-.53,0-.73A5.89,5.89,0,0,1,1.72,36c1-.27,2.07-.47,3.07-.67s1.93-.2,2.94-.33a1.93,1.93,0,0,0,.13-.6c.07-1.2.2-2.47.27-3.74a3.16,3.16,0,0,1,0-.8c.33-3.07.6-6.14,1-9.14.14-1.47.47-2.87.67-4.27.13-.73.33-1.54.4-2.34a22.42,22.42,0,0,1,1.2-5.07,3.77,3.77,0,0,0,.27-.93,2.58,2.58,0,0,1,1.6-.33,1.87,1.87,0,0,1,1.47,1.87,3.08,3.08,0,0,0,.4,1.87.9.9,0,0,1,.13.6,12.69,12.69,0,0,0,.34,2.67,13.39,13.39,0,0,1,.13,2.33c0,1.54-.07,3.14-.13,4.67a5.13,5.13,0,0,1,0,1,50.5,50.5,0,0,0-.27,8.41c.07,1.2,0,2.47,0,3.74,2,0,4-.07,5.94,0s3.8.27,5.81.47c0-.07.07-.13.07-.27.47-3.8.87-7.67,1.27-11.48a48.22,48.22,0,0,1,1.33-7.54c.2-.87.4-1.67.54-2.54a11.43,11.43,0,0,1,1.07-3.34,13.77,13.77,0,0,0,.87-2.67.87.87,0,0,1,.6-.73,1.66,1.66,0,0,1,1.8.4c.07,0,.2.13.2.13-.13.87.53,1.6.33,2.47a1.72,1.72,0,0,0,.2,1.4c.33.93.47,1.87.73,2.8a7.52,7.52,0,0,1,.33,1.33,6.62,6.62,0,0,1,.27,1.6,2.64,2.64,0,0,0,.4,1.4,1.57,1.57,0,0,1,.13.6c-.07,2.07-.07,4.2-.13,6.27a10.57,10.57,0,0,1-.2,1.53,19.4,19.4,0,0,0-.2,3.4,7.7,7.7,0,0,1-.2,1.2A35.8,35.8,0,0,0,36,36c0,.07.07.07.07.2l1.47.2c.2.07.4.07.53.2a.77.77,0,0,1,.4.6.67.67,0,0,1-.4.47,7.69,7.69,0,0,1-1.33.33c-.2.07-.47.07-.73.13-.14.6-.14,1.27-.27,1.8-.47,1.4-.13,2.8-.33,4.2a35.4,35.4,0,0,0-.2,4.61c0,.33-.2.67-.2,1a17.49,17.49,0,0,1-.4,3.2.77.77,0,0,0,.07.67,2.21,2.21,0,0,1,.07,1.6,15,15,0,0,0-.07,4.87c.07.13,0,.2,0,.33.13,1,.2,2,.4,3,.27,1.47.53,2.87.87,4.34a12.53,12.53,0,0,0,.73,1.67c.07.13.27.2.47.33l.4-.6a39.64,39.64,0,0,0,2.8-6.74c.53-1.73,1.4-3.4,2.07-5.07A9.3,9.3,0,0,0,43,56.2l2-5.81c.67-2.14,1.27-4.2,1.87-6.34.2-.73.47-1.4.67-2.07.33-1.2.73-2.34,1.07-3.54a3.39,3.39,0,0,0,.13-.73c0-1.27.34-1.6,1.74-1.6-.07.27-.13.53-.2.73-.2.4-.33.73-.53,1.13a.61.61,0,0,0,.07.8.73.73,0,0,1,.13.87,20,20,0,0,1-.8,2.14,7.18,7.18,0,0,0-.53,1.27C48.23,44,48,45,47.63,46a4,4,0,0,0-.07.93,15.9,15.9,0,0,1-1,4.27c-.33.93-.8,1.8-1.2,2.74a1.3,1.3,0,0,0-.2.53,14,14,0,0,1-1.53,4.34,15.13,15.13,0,0,0-1.4,4.47c-.07.27-.13.47-.2.67-.8,1.6-1.53,3.2-2.33,4.81a30.37,30.37,0,0,1-1.54,3.34,6.46,6.46,0,0,1-1.27,1.47,1.4,1.4,0,0,1-.93.2c-.27,0-.53-.13-.73.2-.07.07-.07.13-.13.13a3.58,3.58,0,0,1-3.6-.93A10,10,0,0,1,30,70.55a30.84,30.84,0,0,1-1.4-4.4c-.4-1.74-.6-3.54-.87-5.34-.27-1.6-.33-3.2-.6-4.8a53.69,53.69,0,0,1-.4-9.28c.07-1.73.07-3.54.13-5.27,0-.73.07-1.47.13-2.2v-.93a16.26,16.26,0,0,0-1.8,0c-.53,0-1.07.07-1.54.07a19.73,19.73,0,0,0-3.47.4,4.68,4.68,0,0,1-.93.07l-3.67.2a.41.41,0,0,0-.27.07,1.12,1.12,0,0,0-.07.47,53.4,53.4,0,0,1-.07,5.67,17.13,17.13,0,0,1-.14,3.2,12.82,12.82,0,0,1-.47,2.2,21.71,21.71,0,0,1-.6,2.87A25,25,0,0,0,13.4,58c-.13.53-.13,1.13-.27,1.67a.9.9,0,0,1-.13.6,3.2,3.2,0,0,0-.54,2.2c0,.27-.07.47-.07.73-.53-.07-1.13-.33-1.54-.2a2.5,2.5,0,0,1-1.2.07A1.37,1.37,0,0,1,8.26,62a14.27,14.27,0,0,1-.73-5.54,19.9,19.9,0,0,0-.2-2.8,16.2,16.2,0,0,1-.13-3.14c-.07-1.67-.13-3.4-.07-5.14,0-1.4.13-2.8.13-4.2.07-.67,0-1.4,0-2.27C6.79,38.85,6.32,38.85,5.86,38.78Z"/><path class="cls-1" d="M56.58,44.32a4.76,4.76,0,0,1-2.94,1.47c-.8.07-1.54.4-2.33.47a4,4,0,0,1-3.87-1.67,3.7,3.7,0,0,1-.67-1.47,9.2,9.2,0,0,1-.13-4.47c.13-.67.2-1.33.33-2l.6-2c.27-.8.6-1.6.8-2.4a11.89,11.89,0,0,1,2.33-4.34,9.73,9.73,0,0,0,1.07-1.27,4.15,4.15,0,0,1,2.14-1.4l1.6-.6a21.35,21.35,0,0,1,2.87-.47,1.84,1.84,0,0,0,.6-.07,4.61,4.61,0,0,1,2.34,0,2.43,2.43,0,0,1,1.54,1.07,8.27,8.27,0,0,1,.8,1.27,1.44,1.44,0,0,1-.27,1.94,1,1,0,0,1-.67.2c-.2.07-.33-.07-.4-.33a5.15,5.15,0,0,0-1.6-2.54l-.2-.2a3.78,3.78,0,0,0-2.27-.13,4.28,4.28,0,0,0-3.07,1.87A42.46,42.46,0,0,0,53,32.71c-.33.87-.6,1.8-.93,2.67-.67,2.14-1.27,4.14-.73,6.34a2.59,2.59,0,0,0,3.2,1.73c1.53-.67,2.87-3.14,3.67-4.54a10.5,10.5,0,0,0,.4-1.53,11.44,11.44,0,0,1,.4-1.6c.2-.8.54-1.6.8-2.4s.6-1.67.8-2.54c.2-.67.53-1.07,1.13-1.13A10.8,10.8,0,0,1,63,29.44a.85.85,0,0,1,1,.67l.2.4c.14.67-.47,1.27-.13,1.93a5,5,0,0,1,0,1,29.18,29.18,0,0,1-.8,4.74c-.27,1.6-.27,2.67-.53,4.27A12.85,12.85,0,0,0,62.39,44c-.13,1-.27,2-.4,3.07a8.37,8.37,0,0,0-.13,1.27c0,.53-.67,3.6,1.27,2.74A11.64,11.64,0,0,0,65.46,49a36.9,36.9,0,0,0,2.4-3.8c1.07-2.2,2.6-5.74,3.67-7.94.2-.33.07-.87.47-.87s.54-.07.87-.13.47.07.4.4a3.54,3.54,0,0,1-.27,1.2,47.86,47.86,0,0,0-2.27,5c-1.73,4-4.2,9.74-8.61,11.28a4.66,4.66,0,0,1-3.87-.6,2.09,2.09,0,0,1-.6-.73,7.84,7.84,0,0,1-.87-4.61c.07-1.27.2-2.47.34-3.74v-.6C56.92,44.06,56.72,44.19,56.58,44.32Z"/><path class="cls-1" d="M80.61,31.31a21.24,21.24,0,0,1,3.34-4.67A8.78,8.78,0,0,1,88.48,24a4.57,4.57,0,0,1,5.14,2.87,34,34,0,0,1,1.27,5.61A15.09,15.09,0,0,1,95,34.91c0,.87.13,1.67.07,2.54,0,1.33-.07,3.47-.13,4.94.27-.2.53-.33.73-.47,1.74-1.47,6.21-3.8,8.14-4.94.6-.33,1.27-1.2,2-.93-.07.13.13.53.07.53-.8.53-.73,1.13-2.07,1.8-1.13,1.47-5.21,3.8-6.61,5-.8.6-1.54,1.33-2.27,2a2.47,2.47,0,0,0-.8,1.47c-.47,1.4-.47,3-1.33,4.27-.4.67-.6,1.47-1,2.14s-.53,1.13-1.2,1.27c-.6.8-1.87.93-2.2,2.07-.53.33-.73,1.07-1.47,1.2-.13,0-.2.13-.33.2-.2.33-.47.6-.67.93a6.5,6.5,0,0,1-2.54-1.8,1.68,1.68,0,0,1-.4-1.74,8.43,8.43,0,0,1,2.2-4.8,4.58,4.58,0,0,0,1.6-3.34c.13-1.6.6-3.27.8-4.87.2-1.93.2-3.87.33-5.81.13-2.8.33-5.54.47-8.34a3.35,3.35,0,0,0-.2-1.6,3,3,0,0,0-1.8,1.13,20.83,20.83,0,0,0-3.6,5.94c-.87,2.14-2.8,4.2-3,6.47-.27,2-.47,4.07-.87,6a15.63,15.63,0,0,0-.27,2.47l-.6,3.2a9,9,0,0,1-.67,5.07c-.33,1.73.13,3.6.07,5.41-.07.6-.13,1.13-.2,1.73a37.56,37.56,0,0,0-.13,4.74c0,.93,0,1.87-.07,2.8a13.61,13.61,0,0,1-.27,1.47,2.3,2.3,0,0,0-.2-.4c-.2.6-.4,1.13-.53,1.6-.07.13-.07.33-.13.33-.73.4-.6,1.07-.73,1.73-.07.4-.14.87-.67.93-.13.07-.2.27-.33.4a1.16,1.16,0,0,1-1.87.07,7.24,7.24,0,0,1-.93-1.07.5.5,0,0,1-.13-.27c.07-.93.13-1.87.13-2.8.07-1.27.2-2.53.2-3.8.07-1.73.07-3.47,0-5.27q-.1-4.5-.2-9c-.07-1.73,0-3.47,0-5.21-.07-2.2-.2-4.4-.2-6.67-.07-1.94,0-3.87,0-5.81s0-3.6-.13-5.34c-.07-1-.33-1.94-.47-2.94a9.52,9.52,0,0,1,.34-3.34c.07-.4.4-.47.73-.47L73,26a3.54,3.54,0,0,1,1.94,1.47,4.17,4.17,0,0,0,.73.8c.67.67,1.4,1.2,2.07,1.87a6.58,6.58,0,0,1,1.4,2.6c.07.27.13.47.2.67a.25.25,0,0,0,.2.07C79.88,32.71,80.28,32,80.61,31.31Zm5.07,21.75c-.13.13-.27.2-.33.33l-1,2.2a1.12,1.12,0,0,0,.07.47c0,.13.13.2.13.27A3.21,3.21,0,0,0,85.68,53.06Z"/><path class="cls-1" d="M112.52,31.31a21.24,21.24,0,0,1,3.34-4.67A8.78,8.78,0,0,1,120.39,24a4.57,4.57,0,0,1,5.14,2.87,34,34,0,0,1,1.27,5.61,15.06,15.06,0,0,1,.07,2.47c0,.87.13,1.67.07,2.54,0,1.33-.07,3.47-.14,4.94.27-.2.53-.33.73-.47,1.74-1.47,6.21-3.8,8.14-4.94.6-.33,1.27-1.2,2-.93-.07.13.13.53.07.53-.8.53-.73,1.13-2.07,1.8-1.13,1.47-5.2,3.8-6.61,5-.8.6-1.54,1.33-2.27,2a2.47,2.47,0,0,0-.8,1.47c-.47,1.4-.47,3-1.34,4.27-.4.67-.6,1.47-1,2.14s-.53,1.13-1.2,1.27c-.6.8-1.87.93-2.2,2.07-.53.33-.73,1.07-1.47,1.2-.13,0-.2.13-.33.2-.2.33-.47.6-.67.93a6.5,6.5,0,0,1-2.54-1.8,1.68,1.68,0,0,1-.4-1.74,8.43,8.43,0,0,1,2.2-4.8,4.57,4.57,0,0,0,1.6-3.34c.13-1.6.6-3.27.8-4.87.2-1.93.2-3.87.33-5.81.13-2.8.33-5.54.47-8.34a3.35,3.35,0,0,0-.2-1.6,3,3,0,0,0-1.8,1.13,20.83,20.83,0,0,0-3.6,5.94c-.87,2.14-2.8,4.2-3,6.47-.27,2-.47,4.07-.87,6a15.57,15.57,0,0,0-.27,2.47l-.6,3.2a9,9,0,0,1-.67,5.07c-.33,1.73.13,3.6.07,5.41-.07.6-.13,1.13-.2,1.73a37.51,37.51,0,0,0-.13,4.74c0,.93,0,1.87-.07,2.8a13.56,13.56,0,0,1-.27,1.47,2.28,2.28,0,0,0-.2-.4c-.2.6-.4,1.13-.53,1.6-.07.13-.07.33-.13.33-.73.4-.6,1.07-.73,1.73-.07.4-.13.87-.67.93-.13.07-.2.27-.33.4a1.16,1.16,0,0,1-1.87.07,7.24,7.24,0,0,1-.93-1.07.5.5,0,0,1-.13-.27c.07-.93.13-1.87.13-2.8.07-1.27.2-2.53.2-3.8.07-1.73.07-3.47,0-5.27q-.1-4.5-.2-9c-.07-1.73,0-3.47,0-5.21-.07-2.2-.2-4.4-.2-6.67-.07-1.94,0-3.87,0-5.81s0-3.6-.13-5.34c-.07-1-.33-1.94-.47-2.94a9.53,9.53,0,0,1,.34-3.34c.07-.4.4-.47.73-.47l1.4.2a3.54,3.54,0,0,1,1.94,1.47,4.16,4.16,0,0,0,.73.8c.67.67,1.4,1.2,2.07,1.87a6.58,6.58,0,0,1,1.4,2.6c.07.27.13.47.2.67a.25.25,0,0,0,.2.07C111.78,32.71,112.18,32,112.52,31.31Zm5.07,21.75c-.13.13-.27.2-.33.33l-1,2.2a1.12,1.12,0,0,0,.07.47c0,.13.13.2.13.27A3.21,3.21,0,0,0,117.59,53.06Z"/><path class="cls-1" d="M150.43,41.59a1.59,1.59,0,0,1-.4.73A38.65,38.65,0,0,0,148.09,46a7.89,7.89,0,0,1-1.73,2.2c-1.27,1.13-5.14,2.74-6.74,1.73-.93-.6-1.94-1.33-2.8-2a5.56,5.56,0,0,1-1.67-2.74,17.8,17.8,0,0,1-.73-6.21,57.75,57.75,0,0,1,.6-6.74c.13-.73.27-1.4.47-2.14.2-1.2.47-2.34.73-3.54.14-.67.27-1.4.4-2.07.07-.4.27-.47.6-.4a14.76,14.76,0,0,1,1.6.53A2,2,0,0,1,140,25.7c.33.6.53,1.13.8,1.74a7.13,7.13,0,0,1,.33,2.07c.07.53.07,1.07.13,1.67.07,2.2-.4,4.4-.27,6.67,0,.67-.07,6.61.07,6.67-.07-.07-.2-.07-.4-.13a6.44,6.44,0,0,1,.33.67,1.88,1.88,0,0,0,.07.6,6.39,6.39,0,0,0,.27,1.07.84.84,0,0,0,1.34.53,8.56,8.56,0,0,0,1.2-1c2.87-2.6,4.94-6.54,7.07-9.81a8,8,0,0,0,1-3c.13-1.2.33-2.4.53-3.6s.47-2.6.67-3.87c.07-.27.2-.47.47-.47a2.71,2.71,0,0,1,2.13.73,2.56,2.56,0,0,1,.4.73c.14.47.27.93.4,1.47.6,1.87.53,4.14.73,6.14.27,2.47.13,5,.33,7.47a41.22,41.22,0,0,1,0,5c0,.07.07.13.14.27.2-.13.4-.2.6-.33.8-.53,1.67-1.07,2.4-1.6.93-.6,1.8-1.27,2.67-1.93s1.74-1.4,2.6-2.07c.47-.33.93-.73,1.4-1.13s1.13-.8,1.67-1.33.93-.93,1.47-1.4a3.54,3.54,0,0,0,.67-.73c.2-.13.33-.33.53-.4a.43.43,0,0,1,.6.07.55.55,0,0,1-.2.53,3.06,3.06,0,0,0-.73,1.07,1.39,1.39,0,0,1-.4.67,4.54,4.54,0,0,0-.93,1,21.9,21.9,0,0,1-2.94,3.2c-.73.6-1.6,1-2.33,1.67s-1.27,1.6-2.14,2.27a21.34,21.34,0,0,1-3.94,2.4,10.72,10.72,0,0,0-1.13.73.56.56,0,0,0-.27.47c0,.2.07.4.07.6,0,.87.07,1.74.07,2.6,0,.2-.07.33-.07.53-.47,2.54-.33,5.14-.87,7.67-.33,1.33-.6,2.67-1,3.87-.33,1-1.2,1.87-1.47,2.8-.4,1.13-1.47,1.8-2.07,2.8a12.5,12.5,0,0,1-1,1.87c-1.07,1.33-3.67,3.07-5.54,3.07a.24.24,0,0,0-.2.07,5.36,5.36,0,0,1-2,.6,16.08,16.08,0,0,1-4.74.47,10.28,10.28,0,0,1-3.47-.6,12.9,12.9,0,0,1-2.14-1.07A10.48,10.48,0,0,1,130,72.42a6.76,6.76,0,0,1-.6-2.27,6,6,0,0,1,.13-1.13,7.44,7.44,0,0,1,1.27-2.87c.07-.13.2-.33.27-.47a4.39,4.39,0,0,1,1.07-1.4,3.82,3.82,0,0,0,.73-.73,6.64,6.64,0,0,1,2-1.6,8.33,8.33,0,0,0,2-1.4,4.13,4.13,0,0,1,1.67-1.13A14.07,14.07,0,0,0,141,58c1.13-.8,2.2-1.53,3.34-2.27,1.54-1,3.14-2,4.67-3a13.41,13.41,0,0,1,1.67-.93.84.84,0,0,0,.4-.73c0-1.4,0-2.8.07-4.2,0-1.8.07-3.6.14-5.4V40.39a.59.59,0,0,0-.07-.33H151C150.83,40.59,150.63,41.05,150.43,41.59ZM131.74,70.41a.08.08,0,1,0,0,.13l.07-.07ZM150,54.27c-.47.27-1,.53-1.54.8-.73.4-1.47.73-2.2,1.13-.93.6-1.8,1.27-2.74,1.87a11.5,11.5,0,0,1-1.47,1c-.67.33-1.2.8-1.87,1.07a1.86,1.86,0,0,0-.8.8c-.2.33-.67.6-.67,1.07,0,.07-.13.2-.2.27-.4.33-.73.67-1.13,1-.13.07-.2.27-.33.27s-.34.13-.47.27a1.6,1.6,0,0,1-.53.4c-.13.13-.4.27-.53.4-.67.53-1.33,1.07-2,1.67l-.27.27a9.28,9.28,0,0,0-.93,3.2c0,.07.07.13.07.2v1.27a3.27,3.27,0,0,0,.73,2.34,6.49,6.49,0,0,0,3.47,1.8.85.85,0,0,0,.4.07,16.56,16.56,0,0,0,4-.6,15.53,15.53,0,0,0,3.2-1.2,8.6,8.6,0,0,0,3.07-2.74c.6-.73,1.13-1.54,1.67-2.27a2.07,2.07,0,0,0,.4-.87c.2-.53.33-1.07.53-1.6a12.47,12.47,0,0,0,.67-3.14c.13-.87.2-1.67.27-2.54.07-2,.27-4.07.2-6.07v-.47A2.55,2.55,0,0,0,150,54.27Zm-9.94-12.88c-.07,0-.14-.07-.2-.07a.21.21,0,0,0-.14.07c.07.07.14.07.14.13A.52.52,0,0,0,140.09,41.39Z"/><path class="cls-1" d="M181.07,9.82a26.63,26.63,0,0,1,7-2.47,19.39,19.39,0,0,1,5.87-.67c2.87.2,5.74.33,8.41,1.6.8.4,1.53.87,2.33,1.27a5.58,5.58,0,0,0,1.07.6c1.67.6,3.6,2.47,4.81,3.67a16.18,16.18,0,0,1,3.2,4.67,27.4,27.4,0,0,1,2.67,11.21,36.27,36.27,0,0,1-.6,6.61c-2,10.81-9.68,20.75-20.55,23.89-8,2.34-17.15-1.54-19.28-9.94a13.35,13.35,0,0,1-.13-5.14c.07-.73.27-1.4.4-2.14A5,5,0,0,1,179,39.65a7.25,7.25,0,0,0,.74.4,6.46,6.46,0,0,1-.74,1,3.52,3.52,0,0,0-.87,2.34,4.07,4.07,0,0,0-.07,1.27,15.38,15.38,0,0,0,2.13,7.61c1.67,2.74,5.14,3.74,8.08,4.2,3.34.53,5.87-1.73,8.27-3.6,6.14-4.61,10.94-9.28,11.88-17.22.33-2.94.53-5.87.6-8.87a14.3,14.3,0,0,0-1-5.54,38.28,38.28,0,0,0-2.2-5.14,11.51,11.51,0,0,0-3.07-3.4,21.6,21.6,0,0,0-5.27-3,12.28,12.28,0,0,0-4.4-.8c-.14,0-.27.07-.4.07s-.07.07-.2.13a10.51,10.51,0,0,0,.47,1.34A12.59,12.59,0,0,1,194,14.56a45.34,45.34,0,0,1,.13,6c-.13,1.8-.6,3.54-.73,5.27a37.15,37.15,0,0,1-.8,5.47c-.53,2.4-1,4.87-1.34,7.27-.33,2.2-.2,4.47-.53,6.61a13.42,13.42,0,0,0-.07,3.27,11,11,0,0,1-.47,3.6s0,.13-.07.13c-.87.8-.73,2.54-1.6,3.34C186.94,57,186,53.06,185.81,52a38.42,38.42,0,0,1-.67-7.34c0-3.07.07-6.14.2-9.28s.2-6.27.4-9.41c.2-3.4.47-6.81.73-10.21.13-1.87.4-3.67.53-5.54.07-.13,0-.2,0-.47a9.68,9.68,0,0,0-1.6.33,27.18,27.18,0,0,0-2.8,1.13c-.13.07-.27.2-.4.2a9.31,9.31,0,0,0-3,2.07c-.13.13-.33.27-.47.2a2,2,0,0,1-1.6-1A27,27,0,0,1,181.07,9.82Z"/><path class="cls-1" d="M241.53,36.78a1.32,1.32,0,0,1-.27.53,9,9,0,0,0-1.27,2.2.5.5,0,0,0-.14.27c0,.8-.6,1.33-.8,2-.4.47-.6,1.13-1,1.67-2,2.47-3,5.54-5.74,7.47-2.07,1.53-4.2,3.6-7,3.4a15.75,15.75,0,0,1-2.94-.73c-.07,0-.13-.07-.27-.13A8.11,8.11,0,0,1,220,51.6a7.79,7.79,0,0,1-1.33-4.14,33,33,0,0,1,.13-5.14c.13-1.07.27-2.2.33-3.27a2.91,2.91,0,0,1,.13-.74c.27-1.07.47-2.13.67-3.27a28.42,28.42,0,0,1,1.4-4,3.89,3.89,0,0,1,.27-.53,3.91,3.91,0,0,0,.8-1.34c0-.07.07-.13.07-.2a5.43,5.43,0,0,1,1.67-2.4,2,2,0,0,1,.47-.33A11.19,11.19,0,0,1,228.12,25a7.8,7.8,0,0,1,3.27-.07c.13,0,.27.07.4.07,4.34.13,2.4,8,.13,9.74a3.55,3.55,0,0,0-1,.73.36.36,0,0,1-.33.2,5.31,5.31,0,0,1-1.07.53,18,18,0,0,1-2.27.73c-1.2.2-1.13.13-1.4,1.13a4.55,4.55,0,0,0-.13.87c.07,3.4-1.87,8.81.2,11.75a2.86,2.86,0,0,0,1.33,1c.27.2.53.13.87.07a6.05,6.05,0,0,0,1.73-.87c.8-.53,1.54-1.07,2.27-1.6a5.32,5.32,0,0,0,.87-.87,21.41,21.41,0,0,0,2.2-3.27,6.08,6.08,0,0,1,.47-.67,39,39,0,0,0,2.67-4.07,2.77,2.77,0,0,0,.33-.6,16.15,16.15,0,0,1,1.73-2.94.81.81,0,0,1,.73-.53A2.15,2.15,0,0,0,241.53,36.78Zm-9.21-9.34a.37.37,0,0,0-.2-.33,2.72,2.72,0,0,0-2.4-.93,1.81,1.81,0,0,0-1.54,1.2,8.78,8.78,0,0,0-.73,2.34,1.27,1.27,0,0,1-.2.67,9.33,9.33,0,0,0-.53,2.27,6.78,6.78,0,0,1-.33,1.67,1.68,1.68,0,0,0-.13,1.13,9.94,9.94,0,0,0,3.14-.87,3.93,3.93,0,0,0,1.6-1.34c.6-.8,1.07-1.6,1.6-2.47.07-.13.2-.33.07-.53a1.53,1.53,0,0,1,.13-.93c.07-.2.14-.47.2-.67A3.63,3.63,0,0,1,232.33,27.44Z"/><path class="cls-1" d="M260.76,36.78a1.32,1.32,0,0,1-.27.53,9,9,0,0,0-1.27,2.2.5.5,0,0,0-.14.27c0,.8-.6,1.33-.8,2-.4.47-.6,1.13-1,1.67-2,2.47-3,5.54-5.74,7.47-2.07,1.53-4.2,3.6-7,3.4a15.75,15.75,0,0,1-2.94-.73c-.07,0-.13-.07-.27-.13a8.11,8.11,0,0,1-2.14-1.87,7.79,7.79,0,0,1-1.33-4.14,32.9,32.9,0,0,1,.13-5.14c.13-1.07.27-2.2.33-3.27a2.91,2.91,0,0,1,.13-.74c.27-1.07.47-2.13.67-3.27a28.39,28.39,0,0,1,1.4-4,3.86,3.86,0,0,1,.27-.53,3.92,3.92,0,0,0,.8-1.34c0-.07.07-.13.07-.2a5.43,5.43,0,0,1,1.67-2.4,2,2,0,0,1,.47-.33A11.19,11.19,0,0,1,247.35,25a7.8,7.8,0,0,1,3.27-.07c.13,0,.27.07.4.07,4.34.13,2.4,8,.13,9.74a3.55,3.55,0,0,0-1,.73.36.36,0,0,1-.33.2,5.3,5.3,0,0,1-1.07.53,18,18,0,0,1-2.27.73c-1.2.2-1.13.13-1.4,1.13a4.56,4.56,0,0,0-.14.87c.07,3.4-1.87,8.81.2,11.75a2.86,2.86,0,0,0,1.33,1c.27.2.53.13.87.07a6.05,6.05,0,0,0,1.73-.87c.8-.53,1.54-1.07,2.27-1.6a5.31,5.31,0,0,0,.87-.87,21.43,21.43,0,0,0,2.2-3.27,6.12,6.12,0,0,1,.47-.67,39.07,39.07,0,0,0,2.67-4.07,2.75,2.75,0,0,0,.33-.6,16.17,16.17,0,0,1,1.73-2.94.81.81,0,0,1,.73-.53A2.14,2.14,0,0,0,260.76,36.78Zm-9.21-9.34a.37.37,0,0,0-.2-.33,2.72,2.72,0,0,0-2.4-.93,1.81,1.81,0,0,0-1.54,1.2,8.78,8.78,0,0,0-.73,2.34,1.3,1.3,0,0,1-.2.67,9.32,9.32,0,0,0-.53,2.27,6.77,6.77,0,0,1-.33,1.67,1.68,1.68,0,0,0-.13,1.13,10,10,0,0,0,3.14-.87,3.93,3.93,0,0,0,1.6-1.34c.6-.8,1.07-1.6,1.6-2.47.07-.13.2-.33.07-.53a1.53,1.53,0,0,1,.13-.93c.07-.2.14-.47.2-.67A3.62,3.62,0,0,1,251.55,27.44Z"/><path class="cls-1" d="M267.57,31.31a21.23,21.23,0,0,1,3.34-4.67A8.78,8.78,0,0,1,275.44,24a4.57,4.57,0,0,1,5.14,2.87,33.91,33.91,0,0,1,1.27,5.61,15.06,15.06,0,0,1,.07,2.47c0,.87.13,1.67.07,2.54,0,1.33-.07,3.47-.14,4.94.27-.2.53-.33.73-.47,1.74-1.47,6.21-3.8,8.14-4.94.6-.33,1.27-1.2,2-.93-.07.13.13.53.07.53-.8.53-.73,1.13-2.07,1.8-1.13,1.47-5.21,3.8-6.61,5-.8.6-1.54,1.33-2.27,2a2.47,2.47,0,0,0-.8,1.47c-.47,1.4-.47,3-1.33,4.27-.4.67-.6,1.47-1,2.14s-.53,1.13-1.2,1.27c-.6.8-1.87.93-2.2,2.07-.53.33-.73,1.07-1.47,1.2-.13,0-.2.13-.33.2-.2.33-.47.6-.67.93a6.5,6.5,0,0,1-2.54-1.8,1.68,1.68,0,0,1-.4-1.74,8.43,8.43,0,0,1,2.2-4.8,4.58,4.58,0,0,0,1.6-3.34c.13-1.6.6-3.27.8-4.87.2-1.93.2-3.87.33-5.81.13-2.8.33-5.54.47-8.34a3.34,3.34,0,0,0-.2-1.6,3,3,0,0,0-1.8,1.13,20.83,20.83,0,0,0-3.6,5.94c-.87,2.14-2.8,4.2-3,6.47-.27,2-.47,4.07-.87,6a15.86,15.86,0,0,0-.27,2.47l-.6,3.2a9,9,0,0,1-.67,5.07c-.33,1.73.13,3.6.07,5.41-.07.6-.13,1.13-.2,1.73a37.51,37.51,0,0,0-.13,4.74c0,.93,0,1.87-.07,2.8a13.55,13.55,0,0,1-.27,1.47,2.28,2.28,0,0,0-.2-.4c-.2.6-.4,1.13-.53,1.6-.07.13-.07.33-.13.33-.73.4-.6,1.07-.73,1.73-.07.4-.14.87-.67.93-.13.07-.2.27-.33.4a1.16,1.16,0,0,1-1.87.07,7.26,7.26,0,0,1-.93-1.07.5.5,0,0,1-.13-.27c.07-.93.13-1.87.13-2.8.07-1.27.2-2.53.2-3.8.07-1.73.07-3.47,0-5.27q-.1-4.5-.2-9c-.07-1.73,0-3.47,0-5.21-.07-2.2-.2-4.4-.2-6.67-.07-1.94,0-3.87,0-5.81s0-3.6-.13-5.34c-.07-1-.33-1.94-.47-2.94a9.47,9.47,0,0,1,.34-3.34c.07-.4.4-.47.73-.47l1.4.2a3.54,3.54,0,0,1,1.94,1.47,4.17,4.17,0,0,0,.73.8c.67.67,1.4,1.2,2.07,1.87a6.58,6.58,0,0,1,1.4,2.6c.07.27.13.47.2.67a.25.25,0,0,0,.2.07C266.84,32.71,267.24,32,267.57,31.31Zm5.07,21.75c-.13.13-.27.2-.33.33l-1,2.2a1.12,1.12,0,0,0,.07.47c0,.13.13.2.13.27A3.21,3.21,0,0,0,272.64,53.06Z"/><path class="cls-1" d="M298.87,44.32a4.76,4.76,0,0,1-2.94,1.47c-.8.07-1.54.4-2.33.47a4,4,0,0,1-3.87-1.67,3.66,3.66,0,0,1-.67-1.47,9.2,9.2,0,0,1-.13-4.47c.13-.67.2-1.33.33-2l.6-2c.27-.8.6-1.6.8-2.4A11.89,11.89,0,0,1,293,27.91a9.73,9.73,0,0,0,1.07-1.27,4.15,4.15,0,0,1,2.14-1.4l1.6-.6a21.34,21.34,0,0,1,2.87-.47,1.84,1.84,0,0,0,.6-.07,4.6,4.6,0,0,1,2.34,0,2.43,2.43,0,0,1,1.54,1.07,8.27,8.27,0,0,1,.8,1.27,1.44,1.44,0,0,1-.27,1.94,1,1,0,0,1-.67.2c-.2.07-.33-.07-.4-.33A5.15,5.15,0,0,0,303,25.7l-.2-.2a3.78,3.78,0,0,0-2.27-.13,4.28,4.28,0,0,0-3.07,1.87,42.5,42.5,0,0,0-2.2,5.47c-.33.87-.6,1.8-.93,2.67-.67,2.14-1.27,4.14-.73,6.34a2.59,2.59,0,0,0,3.2,1.73c1.53-.67,2.87-3.14,3.67-4.54a10.53,10.53,0,0,0,.4-1.53,11.44,11.44,0,0,1,.4-1.6c.2-.8.54-1.6.8-2.4s.6-1.67.8-2.54c.2-.67.53-1.07,1.13-1.13a10.8,10.8,0,0,1,1.27-.27.85.85,0,0,1,1,.67l.2.4c.14.67-.47,1.27-.13,1.93a5,5,0,0,1,0,1,29.18,29.18,0,0,1-.8,4.74c-.27,1.6-.27,2.67-.53,4.27a12.89,12.89,0,0,0-.33,1.53c-.13,1-.27,2-.4,3.07a8.37,8.37,0,0,0-.13,1.27c0,.53-.67,3.6,1.27,2.74A11.64,11.64,0,0,0,307.75,49a36.9,36.9,0,0,0,2.4-3.8c1.07-2.2,2.6-5.74,3.67-7.94.2-.33.07-.87.47-.87s.53-.07.87-.13.47.07.4.4a3.54,3.54,0,0,1-.27,1.2,47.87,47.87,0,0,0-2.27,5c-1.73,4-4.2,9.74-8.61,11.28a4.66,4.66,0,0,1-3.87-.6,2.09,2.09,0,0,1-.6-.73,7.84,7.84,0,0,1-.87-4.61c.07-1.27.2-2.47.34-3.74v-.6C299.21,44.06,299,44.19,298.87,44.32Z"/><path class="cls-1" d="M314.36,22.77a8.86,8.86,0,0,1,1.87.2,1,1,0,0,1,.73.8,1.3,1.3,0,0,0,.6.93,1,1,0,0,1,.47.67,5.55,5.55,0,0,0,.8,1.67,3,3,0,0,1,.4,1.07,5,5,0,0,0,.53,1.6,18.64,18.64,0,0,1,.6,3.87c.33,2.6.6,5.27,1,7.87.2,1.33.8,2.6,1,4a23.08,23.08,0,0,0,.53,4.8,5.23,5.23,0,0,1,.27,1.47A2.78,2.78,0,0,0,323,52.8a4.83,4.83,0,0,0,.27.93c.13.4.2.8.67,1,.27.13.14.47.4.67.14-.07.27-.07.33-.2a5.74,5.74,0,0,0,.54-.8c.4-.8.8-1.6,1.13-2.34.6-1.2,1.13-2.4,1.74-3.6.07-.2.13-.47.2-.67.2-.6.4-1.27.6-1.87.33-1.13.67-2.2,1.07-3.34a14.28,14.28,0,0,1,.47-1.6.86.86,0,0,0-.07-.8A12.7,12.7,0,0,1,329,37.92a7.52,7.52,0,0,1-.53-2c-.13-1.47-.27-2.94-.27-4.47a9,9,0,0,1,.4-2.27,7.61,7.61,0,0,1,1-2.67,11.16,11.16,0,0,1,1-1.47,1.25,1.25,0,0,1,1.07-.47,2.21,2.21,0,0,0,.93,0c.67-.07,1.4.13,2.07.13a.94.94,0,0,1,.8.53,6.92,6.92,0,0,1,1,3.8,14.24,14.24,0,0,1-.67,2.4c-.2.73-.27,1.47-.47,2.2a20.19,20.19,0,0,0-1.07,2.54,3.35,3.35,0,0,1-.8,1.87,2.88,2.88,0,0,0,.8,1.47c.13.2.33.33.4.53a5.11,5.11,0,0,0,2.33,2.27,1,1,0,0,0,1,.13,8.82,8.82,0,0,0,3.27-2.07,5.66,5.66,0,0,0,1.4-1.67,1,1,0,0,1,.2-.27,15,15,0,0,0,1.2-1.67,1.25,1.25,0,0,1,1.67-.53c.07.07.2.07.33.13a.6.6,0,0,0,.07.33.82.82,0,0,1-.14.87c-.13.2-.2.4-.33.6-.4.53-.6,1.2-1.13,1.6-.33,1-1.27,1.33-1.93,2-.07.07-.13.13-.2.13a3,3,0,0,0-1.07.47A12.84,12.84,0,0,1,337,43.92a5,5,0,0,1-1.73-.2c-.87-.27-1.67-.6-2.47-.93-.13-.07-.2-.13-.33-.13a.87.87,0,0,0-.4,1.07.58.58,0,0,1-.07.47c-.47.67-.33,1.54-.67,2.27-.93,2.14-2,4.2-3.07,6.27a5.72,5.72,0,0,1-.47,1.13,2.52,2.52,0,0,1-.8.87,4.57,4.57,0,0,1-1.34.87.06.06,0,0,0-.07.07,13.37,13.37,0,0,1-1.6,1.07,3.5,3.5,0,0,1-4.2-.33,7,7,0,0,1-2.07-2.94,13.45,13.45,0,0,1-.67-2.34.24.24,0,0,1-.07-.2c-.47-1.27-.47-2.67-.93-3.94a1.16,1.16,0,0,1-.07-.47,3.92,3.92,0,0,0-.2-.93c-.4-1.4-.6-2.87-.93-4.27a11.89,11.89,0,0,1-.2-1.53,11.41,11.41,0,0,1-.2-2.14c-.07-1.74-.33-3.47-.33-5.21,0-.67-.14-1.27-.14-1.87V27.91a18.26,18.26,0,0,0-.27-3.34,6.87,6.87,0,0,1,0-1.67A.64.64,0,0,1,314.36,22.77Zm18.22,3.87a1.53,1.53,0,0,1-.27.93,3.54,3.54,0,0,0-.47,2.34,12.26,12.26,0,0,1,.13,2.2v1.67a.31.31,0,0,0,.33.2,4.13,4.13,0,0,0,.2-.53c.14-.4.2-.8.34-1.2.07-.2.07-.4.13-.6,0-.47.07-1,.07-1.47a8.3,8.3,0,0,1,.27-1.8,2.73,2.73,0,0,0-.33-2.14C332.65,26.37,332.58,26.37,332.58,26.64Z"/><path class="cls-1" d="M351.87,44.32a4.76,4.76,0,0,1-2.94,1.47c-.8.07-1.54.4-2.33.47a4,4,0,0,1-3.87-1.67,3.66,3.66,0,0,1-.67-1.47,9.2,9.2,0,0,1-.13-4.47c.13-.67.2-1.33.33-2l.6-2c.27-.8.6-1.6.8-2.4A11.89,11.89,0,0,1,346,27.91a9.73,9.73,0,0,0,1.07-1.27,4.15,4.15,0,0,1,2.14-1.4l1.6-.6a21.34,21.34,0,0,1,2.87-.47,1.84,1.84,0,0,0,.6-.07,4.6,4.6,0,0,1,2.34,0,2.43,2.43,0,0,1,1.54,1.07,8.27,8.27,0,0,1,.8,1.27,1.44,1.44,0,0,1-.27,1.94,1,1,0,0,1-.67.2c-.2.07-.33-.07-.4-.33A5.15,5.15,0,0,0,356,25.7l-.2-.2a3.78,3.78,0,0,0-2.27-.13,4.28,4.28,0,0,0-3.07,1.87,42.5,42.5,0,0,0-2.2,5.47c-.33.87-.6,1.8-.93,2.67-.67,2.14-1.27,4.14-.73,6.34a2.59,2.59,0,0,0,3.2,1.73c1.53-.67,2.87-3.14,3.67-4.54a10.53,10.53,0,0,0,.4-1.53,11.45,11.45,0,0,1,.4-1.6c.2-.8.54-1.6.8-2.4s.6-1.67.8-2.54c.2-.67.53-1.07,1.13-1.13a10.8,10.8,0,0,1,1.27-.27.85.85,0,0,1,1,.67l.2.4c.14.67-.47,1.27-.13,1.93a5,5,0,0,1,0,1,29.18,29.18,0,0,1-.8,4.74c-.27,1.6-.27,2.67-.53,4.27a12.89,12.89,0,0,0-.33,1.53c-.13,1-.27,2-.4,3.07a8.37,8.37,0,0,0-.13,1.27c0,.53-.67,3.6,1.27,2.74A11.64,11.64,0,0,0,360.75,49a36.9,36.9,0,0,0,2.4-3.8c1.07-2.2,2.6-5.74,3.67-7.94.2-.33.07-.87.47-.87s.53-.07.87-.13.47.07.4.4a3.54,3.54,0,0,1-.27,1.2,47.86,47.86,0,0,0-2.27,5c-1.73,4-4.2,9.74-8.61,11.28a4.66,4.66,0,0,1-3.87-.6,2.09,2.09,0,0,1-.6-.73,7.84,7.84,0,0,1-.87-4.61c.07-1.27.2-2.47.34-3.74v-.6C352.21,44.06,352,44.19,351.87,44.32Z"/><path class="cls-1" d="M387.71,38a8.79,8.79,0,0,1-1.07,3.14c-.8,1.67-1.53,3.4-2.33,5.07-.67,1.4-1.67,2.67-2.4,4.07a58.79,58.79,0,0,1-3.67,6.67,10,10,0,0,1-.87,1.4,25,25,0,0,1-1.8,1.94,7.91,7.91,0,0,1-3.94,1.8,2.2,2.2,0,0,1-1.27-.27c-2.07-1.13-2.74-2.87-3.4-5.14-.4-1.6-.6-3.2-.87-4.74-.13-1.13-.4-2.2-.47-3.27a79.52,79.52,0,0,1,.2-9.74,37.73,37.73,0,0,1,.87-7.74A68.86,68.86,0,0,0,368.36,23c.27-2.67,1.4-5.14,2.27-7.67.8-2.33,1.6-4.67,2.6-7,.87-1.87,1.8-3.87,3.53-5.14A14.55,14.55,0,0,1,384.71,0,9.2,9.2,0,0,1,386,.15a2.13,2.13,0,0,1,2,.8,1.63,1.63,0,0,0,.47.27,1.49,1.49,0,0,1,.33.2c.13.73.8,1.13.93,1.94s.53,1.4.67,2.14a14.28,14.28,0,0,1-.93,7.27,35.5,35.5,0,0,1-2.74,6.61c-.4.8-.67,1.73-1.07,2.53s-1.13,1.8-1.67,2.74c-.73,1.27-1.6,2.54-2.47,3.74a14.37,14.37,0,0,1-3,3.34c-.6.53-1.13,1.13-1.74,1.67s-1.47,1.33-2.27,1.93c-.47.33-1,.67-1.47,1a1,1,0,0,0-.54.93c-.13,1.53-.33,3-.47,4.54a15.63,15.63,0,0,0-.2,3.94,72.58,72.58,0,0,1,.47,8.54,7,7,0,0,0,.4,1.27,5.56,5.56,0,0,0,2.14,2.34.79.79,0,0,0,.67-.07,6.31,6.31,0,0,0,1.33-1.33c.67-1.07,1.2-2.14,1.8-3.27,2.47-4.67,4.81-9.48,7.07-14.28.2-.47.4-1,.6-1.53s.93-.93,1.4-1.34a.24.24,0,0,1,.2.07A17.51,17.51,0,0,1,387.71,38Zm-14.88-3.34c.4-.33.87-.6,1.33-.93a25.37,25.37,0,0,0,4.67-4.6,39.31,39.31,0,0,0,3.67-5.67c.6-1.2,1.27-2.4,1.8-3.67s1.07-2.94,1.54-4.4c.27-.73.53-1.54.73-2.27s.27-1.67.4-2.47A9.5,9.5,0,0,0,387,7.55a16.19,16.19,0,0,0-.53-1.93,2,2,0,0,0-.67-1.33,1,1,0,0,1-.27-.6,1.48,1.48,0,0,0-.67-.87c-.27-.13-.6-.27-.87-.4a1,1,0,0,0-1.33.27,4.59,4.59,0,0,0-.53.6c-.6.93-1.2,1.8-1.73,2.8a40.3,40.3,0,0,0-3.67,9.14c-.6,2-1.27,4-1.67,6.07s-.6,4.07-.87,6.14c-.2.87-.27,1.8-.47,2.67a21.68,21.68,0,0,1-.73,2.2c-.27.73-.2,1.54-.4,2.27A.25.25,0,0,1,372.83,34.65Z"/><path class="cls-1" d="M403,37.25c-.14.4-.2.73-.27,1-.4.67-.53,1.34-.87,2a3.13,3.13,0,0,1-.33.67,2.12,2.12,0,0,0-.6,1.07,6.23,6.23,0,0,0-.33.67,4.1,4.1,0,0,0-.47,1.13c-.07.2-.27.47-.33.67a23.37,23.37,0,0,0-1.13,3l-.13.07c-.33.53-.6,1-1,1.54a7.78,7.78,0,0,1-2.2,1.93,3.68,3.68,0,0,1-1.54.93.5.5,0,0,0-.27.13c-.6.13-1.2.2-1.67.33a1.86,1.86,0,0,1-1.07-.07c-.67-.27-1.4-.4-2-.67a3.92,3.92,0,0,1-2-2,10.53,10.53,0,0,1-.67-2.87,21.29,21.29,0,0,1-.07-2.94c-.07-1.07,0-2.2,0-3.34a38.29,38.29,0,0,1,.2-5.54c.13-.93.2-1.87.33-2.8a18.05,18.05,0,0,1,.4-2.74c.27-.8.53-1.53.8-2.4.07-.27.27-.27.47-.27a3.39,3.39,0,0,1,1.47.27,1.11,1.11,0,0,1,.67.53c.13.4.33.6.53,1.07a1.61,1.61,0,0,1,.2.6,15.78,15.78,0,0,0,.2,1.8,30.24,30.24,0,0,1,0,3.47,3.41,3.41,0,0,1-.07,1.4,3.19,3.19,0,0,0,0,.8,4.4,4.4,0,0,1-.07,1.87,14.29,14.29,0,0,0-.2,2.47v.87c-.07.07-.13.07-.13.13a7.83,7.83,0,0,1-.13,2.2c.07.13,0,.33,0,.4a2.65,2.65,0,0,1,.13,1.2,4.18,4.18,0,0,0-.07,1.27,6.24,6.24,0,0,1,.13,1.93,3.46,3.46,0,0,0,.47,1.47c.07.13.2.13.33.13a2.26,2.26,0,0,0,.67-.07,4.8,4.8,0,0,0,1.33-.93,3,3,0,0,0,.73-.87,26.89,26.89,0,0,0,2.87-3.94c.27-.67.67-1.13.93-1.87a8.13,8.13,0,0,0,1.07-2,17.82,17.82,0,0,0,1.2-2.8c.07-.33.33-.53.47-.93a1.89,1.89,0,0,1,1.6-.8A1.16,1.16,0,0,1,403,37.25ZM387.92,20c.13-.07.2-.13.27,0a5,5,0,0,0,1,0,1.72,1.72,0,0,1,1.8.73,15.29,15.29,0,0,1-.53,2.4,5.81,5.81,0,0,0-.6.67.21.21,0,0,0-.14.07c-.47,0-1,.13-1.47-.33a2.75,2.75,0,0,1-.67-.87,1.73,1.73,0,0,1-.47-1.4c.07-.33-.07-.73,0-1.07A2.84,2.84,0,0,1,387.92,20Z"/></g></g></svg>